<svg xmlns="http://www.w3.org/2000/svg" xmlns:xlink="http://www.w3.org/1999/xlink" width="236" height="185" viewBox="0 0 236 185">
  <defs>
    <clipPath id="clip-path">
      <path id="Caminho_11810" data-name="Caminho 11810" d="M101.49,159.107l1.2-4.077a5.134,5.134,0,0,1,6.336-3.522l109.883,31.232a5.14,5.14,0,0,1,3.528,6.343l-1.2,4.077a5.134,5.134,0,0,1-6.336,3.522L105.065,165.45a5.127,5.127,0,0,1-3.574-6.343Z" transform="translate(-101.296 -151.313)" fill="none"/>
    </clipPath>
  </defs>
  <g id="Grupo_26774" data-name="Grupo 26774" transform="translate(4628 8292)">
    <g id="Grupo_27173" data-name="Grupo 27173">
      <g id="ilustra_veloe" data-name="ilustra veloe" transform="translate(-4628.805 -8292)">
        <rect id="Retângulo_8484" data-name="Retângulo 8484" width="236" height="185" transform="translate(0.805)" fill="none"/>
        <path id="Caminho_11797" data-name="Caminho 11797" d="M189.989,109.639l-13.664-.449a7.268,7.268,0,0,0-4.929,1.8l-.39.377-9.25-15.018a18.163,18.163,0,0,0-15.315-8.735L97.4,86.778A18.13,18.13,0,0,0,81,96.431l-7.6,14.423-2.1-1.876a6.607,6.607,0,0,0-4.7-1.7l-13.142.172a7.757,7.757,0,0,0-7.8,7.7l-.046,2.174a8.08,8.08,0,0,0,6.7,7.929l12.058,1.916L59.333,134a13.28,13.28,0,0,0-2.643,7.968l.119,19.095a13.023,13.023,0,0,0,3.3,8.708l-.2,9.316a9.1,9.1,0,0,0,2.531,6.468,8.992,8.992,0,0,0,6.435,2.735l4.81.106a9.131,9.131,0,0,0,6.548-2.643,8.781,8.781,0,0,0,2.643-6.435v-8.094L82.108,168l79.781,4.817-.126,9.316a7.929,7.929,0,0,0,7.843,7.962l5.193.112a7.929,7.929,0,0,0,5.7-2.246,8.041,8.041,0,0,0,2.412-5.6l.059-9.62.78-.978a13.373,13.373,0,0,0,3.171-8.636l-.053-18.718a13.789,13.789,0,0,0-1.625-6.3l-4.328-8.041,10.829-2.742a7.724,7.724,0,0,0,5.894-7.512l.046-2.141a8.067,8.067,0,0,0-7.7-8.034Z" transform="translate(-15.598 -29.441)" fill="#dcdcda"/>
        <path id="Caminho_11798" data-name="Caminho 11798" d="M152.982,169.589l-.2,9.309a7.929,7.929,0,0,0,7.75,8.061l5.187.178a7.928,7.928,0,0,0,5.728-2.174,8.16,8.16,0,0,0,2.478-5.583l.172-9.627.8-.965a13.393,13.393,0,0,0,3.3-8.589l.178-18.718a13.75,13.75,0,0,0-1.546-6.316l-4.229-8.094,10.862-2.643A7.711,7.711,0,0,0,189.447,117l.073-2.141a7.929,7.929,0,0,0-7.671-8.014l-13.657-.614a7.268,7.268,0,0,0-4.949,1.738l-.4.37L153.888,93.2a18.17,18.17,0,0,0-15.2-8.92l-49.078-1.52A18.11,18.11,0,0,0,73.1,92.206l-7.75,14.41-2.075-1.9a6.957,6.957,0,0,0-4.678-1.764H45.451a7.763,7.763,0,0,0-7.929,7.6L37.45,112.7a8.094,8.094,0,0,0,6.607,8.021l12,2.088-5.094,6.779a13.287,13.287,0,0,0-2.716,7.929l-.112,19.095a13.029,13.029,0,0,0,3.218,8.748l-.324,9.316a9.171,9.171,0,0,0,2.451,6.5,8.986,8.986,0,0,0,6.4,2.834l4.81.165a9.144,9.144,0,0,0,6.607-2.524,8.86,8.86,0,0,0,2.821-6.475l.033-8.12Z" transform="translate(-12.83 -28.077)" fill="none" stroke="#202447" stroke-linecap="round" stroke-linejoin="round" stroke-width="1.78"/>
        <path id="Caminho_11799" data-name="Caminho 11799" d="M108.827,175.7a2.346,2.346,0,0,0-2.246-2.266c-7.711,0-20.39-.132-21.989-.324a2.312,2.312,0,0,0-2.709,1.7,2.286,2.286,0,0,0,1.467,2.643c.3.086.661.244,7.559.4,3.356.073,8.318.1,15.573.185A2.418,2.418,0,0,0,108.827,175.7Z" transform="translate(-27.887 -58.716)" fill="#202447" stroke="#202447" stroke-width="0.11"/>
        <path id="Caminho_11800" data-name="Caminho 11800" d="M209.279,179.8h0a2.213,2.213,0,0,0,2.26-2.167h0a2.28,2.28,0,0,0-2.24-2.266l-22.907-.5a2.213,2.213,0,0,0-2.332,2.088v.079a2.279,2.279,0,0,0,2.246,2.26l22.98.5Z" transform="translate(-62.572 -59.329)" fill="#202447" stroke="#202447" stroke-width="0.11"/>
        <path id="Caminho_11801" data-name="Caminho 11801" d="M174.881,127.634a7.717,7.717,0,0,1-5.543,2.094l-67.816-.859a7.929,7.929,0,0,1-4.625-1.553l-7.367-5.358,8.048-15.329a13.591,13.591,0,0,1,12.3-7.222l49.1.839a13.736,13.736,0,0,1,11.549,6.607l9.66,15.857Z" transform="translate(-30.5 -33.727)" fill="#00bdde"/>
        <path id="Caminho_11802" data-name="Caminho 11802" d="M150.6,117.18a4,4,0,0,0-3.806-.74,3.026,3.026,0,0,0-2.359,2.947l-.079,2.048a2.861,2.861,0,0,0,1.414,2.762,4.222,4.222,0,0,0,3.964.357.429.429,0,0,0,.33-.542c0-.066,0-.066-.059-.139-.119-.271-.244-.535-.363-.872a.588.588,0,0,0-.661-.423h-.059a1.745,1.745,0,0,1-1,.092,1.421,1.421,0,0,1-1.229-.773c-.126-.2-.046-.4.277-.324l1.784.073,1.652.059a1.143,1.143,0,0,0,1.321-1.07V120.5l.046-1.189A3.138,3.138,0,0,0,150.6,117.18Zm-1.354,2.59-1.255-.046-1.189-.046c-.2,0-.258-.079-.185-.2a.905.905,0,0,1,.145-.456,1.44,1.44,0,0,1,1.612-.535,1.2,1.2,0,0,1,1.077,1.1c.059.139.059.2-.2.192Z" transform="translate(-49.095 -39.44)" fill="#322d59"/>
        <path id="Caminho_11803" data-name="Caminho 11803" d="M189.53,120.965a3.3,3.3,0,0,0-.905-2.147,4.189,4.189,0,0,0-4.678-.509l-.132.059a.225.225,0,0,0-.139.059l-.066.066-.066.059-.139.126-.066.066c-.139.059-.211.192-.277.251a.35.35,0,0,0-.139.264h0a1.922,1.922,0,0,0-.429.839,19.229,19.229,0,0,0-.2,3.429,1.592,1.592,0,0,0,.291.938h0a.33.33,0,0,0,.126.271l.059.132h0l.059.073.066.066.059.139.066.066.059.066.066.073.066.066.126.139a4.1,4.1,0,0,0,4.149.423c.271-.119.278-.383.225-.661a2.886,2.886,0,0,0-.429-.872c-.126-.271-.383-.482-.661-.357h-.066a1.44,1.44,0,0,1-.535.112,1.612,1.612,0,0,1-1.625-.661c-.251-.344-.185-.469.218-.522,1.255.046,2.438.159,3.627.139a1.044,1.044,0,0,0,.958-.819A1.672,1.672,0,0,0,189.53,120.965Zm-4.836.277c-.264,0-.258-.073-.185-.271a1.077,1.077,0,0,1,.211-.456,1.5,1.5,0,0,1,1.546-.535,1.189,1.189,0,0,1,1.084.971c.06.264.046.463-.35.449l-1.051-.04A8.1,8.1,0,0,0,184.693,121.242Z" transform="translate(-61.97 -39.975)" fill="#322d59"/>
        <path id="Caminho_11804" data-name="Caminho 11804" d="M174.5,118.12a4.281,4.281,0,0,0-4.414-.5l-.132.066h-.066l-.073.066c-.066,0-.2.059-.2.126l-.073.059h0a.78.78,0,0,0-.41.383h0l-.073.059c-.059,0-.066.066-.066.132a1.7,1.7,0,0,0-.5.971,15.506,15.506,0,0,0-.2,3.5,1.929,1.929,0,0,0,.482,1.143h0l.066.073h0l.126.139.126.132.066.073a3.687,3.687,0,0,0,2.894,1.13,3.35,3.35,0,0,0,3.409-2.643,10.571,10.571,0,0,0,.112-2.907,2.947,2.947,0,0,0-1.077-2ZM173.306,119.924ZM173.054,119.587Zm-.218,3.964a.363.363,0,0,1-.139.192.363.363,0,0,0,.139-.192,2.431,2.431,0,0,1-.74.238h-.7c-.78-.357-.9-.562-.866-1.487l.066-1.718c.033-.918.449-1.321,1.44-1.262h.588a.231.231,0,0,0,.2.073l.132.073h0l.192.139.126.2h0l.059.132h0a16.007,16.007,0,0,1,0,2.511,3.586,3.586,0,0,1-.165.859h0l-.066.059ZM172.988,119.521Z" transform="translate(-57.216 -39.773)" fill="#322d59"/>
        <path id="Caminho_11805" data-name="Caminho 11805" d="M136.617,117.035l-1.242-.443a.41.41,0,0,0-.535.178v.132c-.145.39-.3.846-.443,1.236l-1.269,3.786c-.152.522-.429.714-.76.7s-.581-.291-.661-.753a.615.615,0,0,1-.053-.337l-1.143-4.671c-.119-.4-.244-.535-.714-.423l-1.2.35c-.2.059-.4.251-.35.449v.066c.522,1.87.978,3.806,1.5,5.676a2.868,2.868,0,0,0,3.568,1.857,2.755,2.755,0,0,0,1.777-1.645c.661-1.83,1.269-3.72,1.936-5.55a.456.456,0,0,0-.172-.6Z" transform="translate(-43.633 -39.493)" fill="#322d59"/>
        <path id="Caminho_11806" data-name="Caminho 11806" d="M163.562,133.515l-.766-.628a.6.6,0,0,0-.793,0,3.3,3.3,0,0,1-4.163-.165.588.588,0,0,0-.786,0l-.819.562c-.4.251-.416.515-.1.859a5.5,5.5,0,0,0,3.779,1.533l.595-.046a5.352,5.352,0,0,0,3.092-1.269C163.939,134.057,163.946,133.859,163.562,133.515Z" transform="translate(-53.023 -44.98)" fill="#322d59"/>
        <path id="Caminho_11807" data-name="Caminho 11807" d="M158.886,120.668a2.108,2.108,0,0,0,.344,1.533l.059.139.059.132v.066c0,.066.059.132.119.2h0l.132.139.059.066.126.139h0l.066.066h0l.066.066h0l.059.073a3.257,3.257,0,0,0,2.293.614c.264.079.469-.112.542-.377V123.4l.04-1.057c0-.72,0-.793-.661-.819s-.984-.231-.951-1.024l.344-8.913v-.33a.436.436,0,0,0-.383-.416h0a6.9,6.9,0,0,0-1.652-.059l-.132.059h0l-.066.066h0a.429.429,0,0,0-.086.39C159.13,114.464,159.011,117.563,158.886,120.668Z" transform="translate(-54.022 -37.577)" fill="#322d59"/>
        <path id="Caminho_11808" data-name="Caminho 11808" d="M259.71,234.741l.086-4.757a2.927,2.927,0,0,1,2.953-2.854l31.714.548a2.934,2.934,0,0,1,2.861,2.953l-.086,4.757a2.92,2.92,0,0,1-2.98,2.887l-31.714-.542A2.94,2.94,0,0,1,259.71,234.741Z" transform="translate(-88.239 -77.062)" fill="#e51a57"/>
        <g id="Grupo_27170" data-name="Grupo 27170" transform="translate(66.804 99.974)" clip-path="url(#clip-path)">
          <path id="Caminho_11809" data-name="Caminho 11809" d="M101.49,159.107l1.2-4.077a5.134,5.134,0,0,1,6.336-3.522l109.883,31.232a5.14,5.14,0,0,1,3.528,6.343l-1.2,4.077a5.134,5.134,0,0,1-6.336,3.522L105.065,165.45a5.127,5.127,0,0,1-3.574-6.343Z" transform="translate(-101.296 -151.313)" fill="#322d59"/>
        </g>
        <g id="Grupo_27171" data-name="Grupo 27171" transform="translate(66.804 99.974)" clip-path="url(#clip-path)">
          <rect id="Retângulo_8485" data-name="Retângulo 8485" width="31.648" height="6.871" transform="matrix(0.762, -0.648, 0.648, 0.762, 90.84, 39.923)" fill="#e51a57"/>
          <rect id="Retângulo_8486" data-name="Retângulo 8486" width="31.648" height="6.871" transform="matrix(0.762, -0.648, 0.648, 0.762, 76.197, 37.947)" fill="#e51a57"/>
          <rect id="Retângulo_8487" data-name="Retângulo 8487" width="31.648" height="6.871" transform="matrix(0.762, -0.648, 0.648, 0.762, 61.729, 35.616)" fill="#e51a57"/>
          <rect id="Retângulo_8488" data-name="Retângulo 8488" width="31.648" height="6.871" transform="matrix(0.762, -0.648, 0.648, 0.762, 47.003, 31.88)" fill="#e51a57"/>
          <rect id="Retângulo_8489" data-name="Retângulo 8489" width="31.648" height="6.871" transform="matrix(0.762, -0.648, 0.648, 0.762, 32.698, 28.405)" fill="#e51a57"/>
          <rect id="Retângulo_8490" data-name="Retângulo 8490" width="31.648" height="6.871" transform="matrix(0.762, -0.648, 0.648, 0.762, 21.136, 24.472)" fill="#e51a57"/>
          <rect id="Retângulo_8491" data-name="Retângulo 8491" width="31.648" height="6.871" transform="matrix(0.762, -0.648, 0.648, 0.762, 6.76, 20.888)" fill="#e51a57"/>
          <rect id="Retângulo_8492" data-name="Retângulo 8492" width="31.648" height="6.871" transform="matrix(0.762, -0.648, 0.648, 0.762, -6.503, 16.514)" fill="#e51a57"/>
        </g>
        <path id="Caminho_11812" data-name="Caminho 11812" d="M268.851,200.675a7.6,7.6,0,0,1,7.73-7.466l9.25.159a7.6,7.6,0,0,1,7.466,7.724l-.291,16.848-24.446-.423Z" transform="translate(-91.242 -65.553)" fill="#dcdcda"/>
        <path id="Caminho_11813" data-name="Caminho 11813" d="M110.11,163.535l106.857,30.393-.1,5.616-2.841-.046a2.927,2.927,0,0,0-2.953,2.854l-.079,4.757a2.92,2.92,0,0,0,2.854,2.953l31.714.548a2.934,2.934,0,0,0,2.96-2.854L248.6,203a2.934,2.934,0,0,0-2.854-2.96l-4.427-.073.258-14.932a7.6,7.6,0,0,0-7.466-7.73l-9.25-.159a7.486,7.486,0,0,0-5.59,2.352L114.034,149.588a5.114,5.114,0,0,0-6.336,3.528l-1.2,4.077a5.134,5.134,0,0,0,3.607,6.343Z" transform="translate(-36.193 -50.685)" fill="none" stroke="#202447" stroke-width="1.78"/>
        <path id="Caminho_3675-2" data-name="Caminho 3675-2" d="M215.187,161.158a4.261,4.261,0,0,1,.568-2.174,4.1,4.1,0,0,1,2.121-.555,4,4,0,0,1-2.1-.568,3.885,3.885,0,0,1-.562-2.121,4.3,4.3,0,0,1-.562,2.167,3.687,3.687,0,0,1-2.061.562,4.083,4.083,0,0,1,2.108.562,4.8,4.8,0,0,1,.489,2.127Z" transform="translate(-72.252 -52.84)" fill="#dea100"/>
        <path id="Caminho_3675-2-2" data-name="Caminho 3675-2" d="M174.667,207.118a4.235,4.235,0,0,1,.568-2.167,4.037,4.037,0,0,1,2.121-.562,4.063,4.063,0,0,1-2.1-.562,3.905,3.905,0,0,1-.562-2.128,4.321,4.321,0,0,1-.562,2.174,3.733,3.733,0,0,1-2.061.555,4.031,4.031,0,0,1,2.108.568,4.388,4.388,0,0,1,.489,2.121Z" transform="translate(-58.504 -68.434)" fill="#dea100"/>
        <rect id="Retângulo_8493" data-name="Retângulo 8493" width="18.236" height="69.996" rx="3.45" transform="translate(131.94 48.436) rotate(-70.84)" fill="#201a5b"/>
        <rect id="Retângulo_8494" data-name="Retângulo 8494" width="9.481" height="9.481" rx="1.71" transform="translate(154.616 51.724) rotate(-70.84)" fill="#00bdde"/>
        <path id="Caminho_11814" data-name="Caminho 11814" d="M240.664,77.922a2.775,2.775,0,0,1-1.678-1.526.257.257,0,0,1,0-.231.231.231,0,0,1,.152-.119l.661-.2a.311.311,0,0,1,.2,0,.291.291,0,0,1,.165.165,1.685,1.685,0,0,0,2.121.727.271.271,0,0,1,.383.112l.357.555a.231.231,0,0,1-.033.317l-.073.04A2.782,2.782,0,0,1,240.664,77.922Z" transform="translate(-81.199 -25.726)" fill="#201a5b"/>
        <path id="Caminho_11815" data-name="Caminho 11815" d="M245.836,69.8a.2.2,0,0,0-.079-.145l-.661-.489h-.066a.231.231,0,0,0-.244.073l-1.665,2.359a1.664,1.664,0,0,1-.139.165.37.37,0,0,1-.39.132.4.4,0,0,1-.258-.344v-.211l.132-2.894a.231.231,0,0,0-.145-.211h-.866a.218.218,0,0,0-.152.066.192.192,0,0,0-.066.152l-.139,3.138a1.573,1.573,0,0,0,.423,1.176,1.44,1.44,0,0,0,.575.37h.079a1.605,1.605,0,0,0,.661.066,1.632,1.632,0,0,0,1.064-.661l1.843-2.564a.238.238,0,0,0,.092-.178Z" transform="translate(-81.924 -23.149)" fill="#201a5b"/>
        <path id="Caminho_11816" data-name="Caminho 11816" d="M289.712,91.561a1.936,1.936,0,0,1-1.321-2.4V89.09l.4-1.136a2.035,2.035,0,0,1,3.839,1.321l-.126.357c-.2.575-.614.707-.9.608l-2.042-.694a.74.74,0,0,0,.529.859,1.183,1.183,0,0,0,.456.073.9.9,0,0,1,.192,0,.284.284,0,0,1,.185.264l.066.661a.251.251,0,0,1-.218.277,2.425,2.425,0,0,1-1.057-.119Zm1.757-2.6a.747.747,0,0,0-.363-.984l-.132-.046a.753.753,0,0,0-.991.383.324.324,0,0,0-.04.112Z" transform="translate(-97.944 -29.421)" fill="#00bdde"/>
        <path id="Caminho_11817" data-name="Caminho 11817" d="M269.011,84.424a1.929,1.929,0,0,1-1.321-2.4v-.073l.4-1.136a2.061,2.061,0,0,1,3.845,1.321l-.132.357c-.192.575-.614.707-.9.6l-2.068-.714a.747.747,0,0,0,.555.872,1.322,1.322,0,0,0,.456.073.462.462,0,0,1,.192,0,.278.278,0,0,1,.185.264l.073.661a.264.264,0,0,1-.225.277A2.524,2.524,0,0,1,269.011,84.424Zm1.764-2.6a.814.814,0,1,0-1.539-.529Z" transform="translate(-90.92 -27.054)" fill="#00bdde"/>
        <path id="Caminho_11818" data-name="Caminho 11818" d="M282.084,88.885a1.982,1.982,0,0,1-1.321-2.425.374.374,0,0,0,0-.079l.39-1.1a2.061,2.061,0,0,1,3.9,1.321l-.377,1.1a1.982,1.982,0,0,1-2.458,1.229Zm1.275-3.667a.661.661,0,0,0-.978.416l-.423,1.236a.7.7,0,0,0,.469.872h.046a.661.661,0,0,0,.951-.363l.429-1.236a.661.661,0,0,0-.5-.925Z" transform="translate(-95.357 -28.496)" fill="#00bdde"/>
        <path id="Caminho_11819" data-name="Caminho 11819" d="M274.364,91.967a2.94,2.94,0,0,1-1.758-1.586.291.291,0,0,1,0-.244.258.258,0,0,1,.152-.126l.661-.231a.311.311,0,0,1,.218,0,.291.291,0,0,1,.178.165,1.638,1.638,0,0,0,.971.819,1.7,1.7,0,0,0,1.262,0,.3.3,0,0,1,.4.106h0l.383.588a.3.3,0,0,1,.046.2.324.324,0,0,1-.165.185A2.927,2.927,0,0,1,274.364,91.967Z" transform="translate(-92.606 -30.454)" fill="#00bdde"/>
        <path id="Caminho_11820" data-name="Caminho 11820" d="M276.706,85.575a1.652,1.652,0,0,1-1.123-2.068,1.313,1.313,0,0,1,.059-.172L277.46,78.1a.231.231,0,0,1,.291-.139h0l.806.278a.231.231,0,0,1,.139.291L276.9,83.686a.475.475,0,0,0,.284.661l.3.106a.218.218,0,0,1,.139.284h0l-.291.846a.231.231,0,0,1-.291.145Z" transform="translate(-93.601 -26.448)" fill="#00bdde"/>
        <path id="Caminho_11821" data-name="Caminho 11821" d="M264.861,77.892a.264.264,0,0,0-.093-.159l-.661-.515h-.073a.231.231,0,0,0-.258.079l-1.764,2.491a.92.92,0,0,1-.139.178.423.423,0,0,1-.436.119.4.4,0,0,1-.271-.363,1.278,1.278,0,0,1,0-.225l.159-3.059a.244.244,0,0,0-.159-.218h-.912a.3.3,0,0,0-.165.066.244.244,0,0,0-.066.165l-.145,3.3a1.685,1.685,0,0,0,.456,1.236,1.58,1.58,0,0,0,.608.4h.086a1.513,1.513,0,0,0,.727.059,1.692,1.692,0,0,0,1.123-.661l1.936-2.643A.251.251,0,0,0,264.861,77.892Z" transform="translate(-88.296 -25.86)" fill="#00bdde"/>
        <path id="Caminho_11822" data-name="Caminho 11822" d="M219.844,65.639l.588-1.7-1.7-.588.595-1.7-1.7-.588-.581,1.7-1.7-.595-.588,1.7,1.7.595-.588,1.7,1.7.588.588-1.7Z" transform="translate(-72.985 -20.717)" fill="#00bdde"/>
        <path id="Caminho_11823" data-name="Caminho 11823" d="M222.155,67.423l-.595,1.7,1.7.595-.588,1.7,1.7.588.588-1.7.588-1.691.595-1.7-1.7-.588-.595,1.691Z" transform="translate(-75.296 -22.501)" fill="#00bdde"/>
        <rect id="Retângulo_8495" data-name="Retângulo 8495" width="1.797" height="1.797" transform="translate(146.347 40.946) rotate(-70.84)" fill="#00bdde"/>
        <rect id="Retângulo_8496" data-name="Retângulo 8496" width="1.797" height="1.797" transform="translate(142.961 39.765) rotate(-70.84)" fill="#00bdde"/>
        <rect id="Retângulo_8497" data-name="Retângulo 8497" width="1.797" height="1.797" transform="translate(140.602 46.554) rotate(-70.84)" fill="#00bdde"/>
        <rect id="Retângulo_8498" data-name="Retângulo 8498" width="1.797" height="1.797" transform="translate(147.466 43.225) rotate(-70.84)" fill="#00bdde"/>
        <rect id="Retângulo_8499" data-name="Retângulo 8499" width="1.797" height="1.797" transform="translate(149.751 42.122) rotate(-70.84)" fill="#00bdde"/>
        <rect id="Retângulo_8500" data-name="Retângulo 8500" width="1.797" height="1.797" transform="translate(143.997 47.73) rotate(-70.84)" fill="#00bdde"/>
        <path id="Caminho_739" data-name="Caminho 739" d="M44.593,81.28l20.139,3.5a1.876,1.876,0,0,1,1.592,2.1h0a1.982,1.982,0,0,1-2.2,1.606l-20.3-.965A3,3,0,0,1,41,84.405a1.8,1.8,0,0,1,.053-.416,2.967,2.967,0,0,1,3.125-2.821,2.246,2.246,0,0,1,.423.059" transform="translate(-14.033 -27.538)" fill="#00c0e2"/>
        <path id="Caminho_740" data-name="Caminho 740" d="M97.453,41.691l1.9,16.148a1.321,1.321,0,0,1-1.064,1.579h-.066a1.672,1.672,0,0,1-1.711-1.427L92.743,42.133a2.127,2.127,0,0,1,1.381-2.643,2.062,2.062,0,0,1,.535-.086,2.643,2.643,0,0,1,2.848,2.24" transform="translate(-31.558 -13.366)" fill="#00c0e2"/>
        <path id="Caminho_741" data-name="Caminho 741" d="M53.251,39.645,72.484,59.539a2.332,2.332,0,0,1,.33,3.231h0l-.086.192c-.938,1.037-2.372.747-3.607-.152L47.866,45.267a3.918,3.918,0,0,1-.819-5.391l.317-.377a4.129,4.129,0,0,1,5.9.185h0" transform="translate(-15.839 -13.011)" fill="#00c0e2"/>
        <path id="Caminho_3675-2-3" data-name="Caminho 3675-2" d="M72.332,162.21a6.607,6.607,0,0,1,.918-3.548,7.057,7.057,0,0,1,3.449-1,6.607,6.607,0,0,1-3.482-.925,7.2,7.2,0,0,1-1-3.449,6.118,6.118,0,0,1-.991,3.548,5.7,5.7,0,0,1-3.449.885,6.607,6.607,0,0,1,3.489.918,5.893,5.893,0,0,1,1.064,3.568Z" transform="translate(-23.12 -52.009)" fill="#dea100"/>
        <path id="Caminho_3675-2-4" data-name="Caminho 3675-2" d="M287.459,52.238a6.323,6.323,0,0,1,.839-3.211,6.039,6.039,0,0,1,3.138-.826,5.946,5.946,0,0,1-3.112-.813,5.834,5.834,0,0,1-.826-3.138,6.31,6.31,0,0,1-.833,3.2,5.451,5.451,0,0,1-3.046.826,5.946,5.946,0,0,1,3.112.839A7.049,7.049,0,0,1,287.459,52.238Z" transform="translate(-96.352 -15.013)" fill="#dea100"/>
        <path id="Caminho_3675-2-5" data-name="Caminho 3675-2" d="M297.686,69.13a3.793,3.793,0,0,1,.5-1.929,3.74,3.74,0,0,1,1.883-.5,3.5,3.5,0,0,1-1.863-.5,3.435,3.435,0,0,1-.5-1.883,3.858,3.858,0,0,1-.5,1.929,3.3,3.3,0,0,1-1.83.5,3.521,3.521,0,0,1,1.87.5A4.162,4.162,0,0,1,297.686,69.13Z" transform="translate(-100.342 -21.823)" fill="#dea100"/>
        <path id="Caminho_3675-2-6" data-name="Caminho 3675-2" d="M187.819,70.87a3.859,3.859,0,0,1,.5-1.929,3.74,3.74,0,0,1,1.883-.5,3.568,3.568,0,0,1-1.863-.5,3.475,3.475,0,0,1-.5-1.89,3.792,3.792,0,0,1-.5,1.929,3.3,3.3,0,0,1-1.824.5,3.561,3.561,0,0,1,1.863.5,4.162,4.162,0,0,1,.436,1.883Z" transform="translate(-63.068 -22.413)" fill="#dea100"/>
      </g>
    </g>
  </g>
</svg>
