<svg xmlns="http://www.w3.org/2000/svg" width="129.02" height="96.669" viewBox="0 0 129.02 96.669">
  <g id="ilustra_seguro_auto" data-name="ilustra seguro auto" transform="translate(-0.48 -2.22)">
    <path id="Caminho_12918" data-name="Caminho 12918" d="M109,88.51l.09,5.56a4.71,4.71,0,0,0,4.72,4.62h3.11a4.43,4.43,0,0,0,3.3-1.41,4.77,4.77,0,0,0,1.32-3.3l-.1-5.75.47-.57a7.87,7.87,0,0,0,1.8-5.18l-.3-11a7.609,7.609,0,0,0-1-3.769L119.7,63l6.41-1.8a4.65,4.65,0,0,0,3.39-4.52V55.33a4.65,4.65,0,0,0-4.67-4.62h0l-8.1-.09a4,4,0,0,0-2.83,1.13l-.19.19L108,43.17a10.89,10.89,0,0,0-9.23-5l-29,.09a10.51,10.51,0,0,0-9.52,5.94l-4.34,8.67-1.22-1a4.24,4.24,0,0,0-2.74-.94l-7.73.28a4.7,4.7,0,0,0-4.52,4.72v1.32a4.74,4.74,0,0,0,4,4.61l7.18,1L48,67a7.79,7.79,0,0,0-1.41,4.72l.38,11.31A7.9,7.9,0,0,0,49,88.14V93.6a5.3,5.3,0,0,0,1.6,3.77,4.94,4.94,0,0,0,3.87,1.51H57.3a5.5,5.5,0,0,0,3.86-1.6,5.27,5.27,0,0,0,1.51-3.87l-.1-4.8Z" fill="#dcdcda"/>
    <path id="Caminho_12919" data-name="Caminho 12919" d="M50.12,95.55A5,5,0,0,1,46.47,94a5.43,5.43,0,0,1-1.64-3.88V84.7a8,8,0,0,1-2.08-5.14l-.37-11.31a7.85,7.85,0,0,1,1.44-4.8l2.79-4-7-1a4.87,4.87,0,0,1-4.16-4.76V52.41a4.8,4.8,0,0,1,4.66-4.85l7.73-.29a4.33,4.33,0,0,1,2.83,1l1.09.92,4.25-8.51a10.73,10.73,0,0,1,9.61-6h0l29-.1h.07a11,11,0,0,1,9.29,5.07l5.55,8.61.07-.06a4.15,4.15,0,0,1,3.05-1.2l8.1.1h.07a4.79,4.79,0,0,1,4.79,4.76v1.32a4.82,4.82,0,0,1-3.5,4.67l-6.23,1.74,2.55,4.55a7.74,7.74,0,0,1,1,3.84l.29,11a8.07,8.07,0,0,1-1.83,5.28l-.43.52.09,5.7a4.84,4.84,0,0,1-1.36,3.4,4.57,4.57,0,0,1-3.35,1.46h-3.17a4.87,4.87,0,0,1-4.85-4.77l-.1-5.42-46.08.09.09,4.66a5.4,5.4,0,0,1-1.55,4,5.62,5.62,0,0,1-4,1.65H50.12ZM48,47.56h-.1l-7.73.29a4.51,4.51,0,0,0-4.38,4.56v1.32a4.58,4.58,0,0,0,3.91,4.48l7.18,1a.16.16,0,0,1,.12.09.14.14,0,0,1,0,.14l-2.93,4.15a7.62,7.62,0,0,0-1.38,4.62L43,79.55a7.79,7.79,0,0,0,2,5,.18.18,0,0,1,0,.1v5.46a5.13,5.13,0,0,0,1.56,3.67,4.75,4.75,0,0,0,3.75,1.47h2.84A5.36,5.36,0,0,0,57,93.69a5.13,5.13,0,0,0,1.46-3.76l-.09-4.81a.13.13,0,0,1,0-.1.16.16,0,0,1,.1,0l46.38-.09h0a.14.14,0,0,1,.14.14l.1,5.56a4.58,4.58,0,0,0,4.56,4.49h3.11A4.29,4.29,0,0,0,116,93.7a4.58,4.58,0,0,0,1.28-3.2l-.1-5.75a.11.11,0,0,1,0-.09l.47-.57A7.77,7.77,0,0,0,119.48,79l-.29-11a7.5,7.5,0,0,0-1-3.7l-2.65-4.72a.13.13,0,0,1,0-.12.12.12,0,0,1,.09-.09L122,57.55a4.55,4.55,0,0,0,3.29-4.39V51.84a4.51,4.51,0,0,0-4.5-4.47h-.07l-8.11-.09a3.73,3.73,0,0,0-2.72,1.09l-.19.18a.17.17,0,0,1-.12.05.14.14,0,0,1-.1-.07l-5.66-8.77a10.68,10.68,0,0,0-9.11-4.92l-29,.09h0a10.44,10.44,0,0,0-9.35,5.86L52,49.46a.14.14,0,0,1-.1.08.13.13,0,0,1-.12,0l-1.23-1A4,4,0,0,0,48,47.56Z" fill="#202447"/>
    <path id="Caminho_12920" data-name="Caminho 12920" d="M70,73.81a1.34,1.34,0,0,0-1.32-1.32h0c-4.61.09-12.06.19-13,.09a1.34,1.34,0,0,0-1.6,1,1.36,1.36,0,0,0,.94,1.6c.19.09.38.09,4.52.09,2,0,4.9,0,9.24-.09A1.27,1.27,0,0,0,70,73.82Z" fill="#202447"/>
    <path id="Caminho_12921" data-name="Caminho 12921" d="M59.57,75.23c-4.17,0-4.34,0-4.53-.09a1.4,1.4,0,0,1-.95-1.62,1.36,1.36,0,0,1,1.31-1,1.631,1.631,0,0,1,.31,0c.93.1,8.16,0,13-.09a1.34,1.34,0,0,1,1.33,1.33h0a1.34,1.34,0,0,1-.35.92,1.29,1.29,0,0,1-.9.4C64.47,75.23,61.52,75.23,59.57,75.23ZM55.4,72.56a1.31,1.31,0,0,0-1.28,1,1.37,1.37,0,0,0,.93,1.59c.19.09.35.09,4.52.09,2,0,4.9,0,9.24-.09A1.26,1.26,0,0,0,70,73.82h0a1.33,1.33,0,0,0-1.31-1.31c-4.85.1-12.08.19-13,.09Z" fill="#202447"/>
    <path id="Caminho_12922" data-name="Caminho 12922" d="M108.88,75h0a1.32,1.32,0,1,0,0-2.64H95.3A1.29,1.29,0,0,0,94,73.63v.07h0A1.36,1.36,0,0,0,95.3,75Z" fill="#202447"/>
    <path id="Caminho_12923" data-name="Caminho 12923" d="M108.88,75H95.3A1.36,1.36,0,0,1,94,73.7v-.07a1.3,1.3,0,0,1,1.3-1.26h13.61a1.33,1.33,0,1,1,0,2.66ZM95.27,72.39A1.27,1.27,0,0,0,94,73.63a.09.09,0,0,0,0,.07A1.31,1.31,0,0,0,95.3,75h13.58a1.31,1.31,0,0,0,0-2.61Z" fill="#202447"/>
    <path id="Caminho_12924" data-name="Caminho 12924" d="M107.18,59.39A4.69,4.69,0,0,1,104,60.71l-40.15.37a4.68,4.68,0,0,1-2.73-.84l-4.43-3.11L61.18,48a8,8,0,0,1,7.18-4.43l29-.09a8.13,8.13,0,0,1,6.89,3.77l5.93,9.24Z" fill="#e52058"/>
    <path id="Caminho_12925" data-name="Caminho 12925" d="M102.21,13.68l-1.09.7-1.75-2.69A6.5,6.5,0,1,0,88.489,18.8L90.25,21.49l-1.08.71a1.14,1.14,0,0,0-.33,1.57h0L93.54,31a1.14,1.14,0,0,0,1.57.32l13-8.52a1.15,1.15,0,0,0,.32-1.58L103.76,14a1.13,1.13,0,0,0-1.55-.32ZM90.32,17.43a4.214,4.214,0,0,1,7.05-4.62l1.85,2.82-7.06,4.63Z" fill="#cececc"/>
    <path id="Caminho_12926" data-name="Caminho 12926" d="M99,20.55a1.33,1.33,0,1,0-1.09,2.04l.84,1.3a.39.39,0,0,0,.53.11h0l.52-.33a.39.39,0,0,0,.11-.53l-.85-1.29a1.3,1.3,0,0,0-.06-1.3Z" fill="#e52058"/>
    <path id="Caminho_12927" data-name="Caminho 12927" d="M93.11,30.93A1.28,1.28,0,0,1,92,30.36l-4.7-7.18a1.3,1.3,0,0,1,.37-1.77l1-.63L87,18.21a6.65,6.65,0,0,1,11.12-7.28l1.67,2.57,1-.62a1.27,1.27,0,0,1,1.77.34l4.7,7.18a1.3,1.3,0,0,1-.37,1.78l-13,8.52a1.21,1.21,0,0,1-.78.23Zm-.49-22.6a6.35,6.35,0,0,0-5.38,9.72L89,20.74a.14.14,0,0,1,0,.2l-1.08.71A1,1,0,0,0,87.59,23l4.69,7.18a1,1,0,0,0,1.38.27l13-8.54a1,1,0,0,0,.29-1.37l-4.7-7.18a1,1,0,0,0-1.37-.26h0l-1.08.71a.14.14,0,0,1-.11,0,.15.15,0,0,1-.09-.06l-1.76-2.7a6.35,6.35,0,0,0-5.22-2.72ZM100.83,13Zm-10,6.71h0a.18.18,0,0,1-.09-.06L88.9,16.83a4.335,4.335,0,0,1,7.26-4.74L98,14.87a.15.15,0,0,1,0,.21l-7.06,4.61a.11.11,0,0,1-.16.02Zm1.68-9.34a4.08,4.08,0,0,0-4,3.24,4,4,0,0,0,.58,3.06h0l1.76,2.7,6.81-4.46L95.9,12.22a4.05,4.05,0,0,0-2.58-1.76,4,4,0,0,0-.86-.09Z" fill="#202447"/>
    <g id="Grupo_37" data-name="Grupo 37">
      <g id="Grupo_26573" data-name="Grupo 26573">
        <path id="Stroke_4126" data-name="Stroke 4126" d="M17.87,52.55c-7.75-6-15.26-19-15.26-30.52V17.44a6.61,6.61,0,0,1,6.56-6.61H32.8a6.6,6.6,0,0,1,6.56,6.63h0v4.63c0,11.25-7.08,24.26-15.17,30.52C21.32,55.11,17.87,52.55,17.87,52.55Z" fill="#dedddc"/>
      </g>
    </g>
    <g id="Grupo_37-2" data-name="Grupo 37-2">
      <g id="Grupo_26573-2" data-name="Grupo 26573-2">
        <path id="Caminho_12928" data-name="Caminho 12928" d="M19.35,53.15A6.67,6.67,0,0,1,15.8,52h0C8.27,46.15.48,33.1.48,21.33V16.75A6.75,6.75,0,0,1,7.18,10H30.81a6.74,6.74,0,0,1,6.71,6.77v4.65C37.52,32.14,31,45.31,22.29,52A4.35,4.35,0,0,1,19.35,53.15ZM16,51.74c.07,0,3.41,2.44,6.14.06,8.62-6.67,15.12-19.74,15.12-30.41V16.74a6.45,6.45,0,0,0-6.42-6.48H7.18A6.46,6.46,0,0,0,.77,16.74v4.59C.77,33,8.5,46,16,51.74Z" fill="#202447"/>
      </g>
    </g>
    <path id="Caminho_12929" data-name="Caminho 12929" d="M20,24.23a18.11,18.11,0,0,0-3,.32,6,6,0,0,1,4.55-2.28,5.76,5.76,0,0,1,3.64,1.19c.17.13.29.14.42,0s.11-.25,0-.41a6.25,6.25,0,0,0-5-2.15,6.6,6.6,0,0,0-5.9,4.24,11.6,11.6,0,0,0-2.2.95c-.17.11-.24.23-.17.38a.26.26,0,0,0,.36.13h0c.56-.17,1.13-.32,1.74-.45a4.58,4.58,0,0,0-.11,1,6.06,6.06,0,0,0,2.92,5.3.3.3,0,0,0,.44,0c.13-.14.09-.26-.06-.39a5.34,5.34,0,0,1-1.77-4,5.5,5.5,0,0,1,.45-2.16c.6-.06,1.25-.11,2-.13,4.64-.1,8.53,1.34,8.53,3.31,0,1-1.29,2-2.82,2.74-.37.17-.41.29-.36.45s.22.19.41.13c2.69-.93,4.7-2.4,4.71-4.12,0-2.35-3.81-4.07-8.65-4" fill="#e52058"/>
    <path id="Caminho_12930" data-name="Caminho 12930" d="M21.84,30.91l-1.35.8v4.66h1.43a.28.28,0,0,0,.29-.25v-5c0-.2-.17-.3-.38-.18" fill="#e52058"/>
    <path id="Caminho_12931" data-name="Caminho 12931" d="M20.11,31.93l-.95.56a.3.3,0,0,0-.16.27v3.46a.16.16,0,0,0,.15.17h.93Z" fill="#e52058"/>
    <path id="Caminho_12932" data-name="Caminho 12932" d="M17.06,31.77a.59.59,0,0,1-.28-.1,6.19,6.19,0,0,1-2.19-2.27,6,6,0,0,1-.77-3.11,3.83,3.83,0,0,1,.08-.83c-.58.13-1.09.27-1.58.42a.37.37,0,0,1-.49-.18h0c-.05-.11-.08-.33.22-.51a12.17,12.17,0,0,1,2.16-.94,6.72,6.72,0,0,1,6-4.26,6.33,6.33,0,0,1,5.1,2.2c.18.2.19.38,0,.54a.37.37,0,0,1-.53,0h0a5.62,5.62,0,0,0-3.59-1.16,5.86,5.86,0,0,0-4.3,2,18.31,18.31,0,0,1,2.77-.28c3.41-.08,6.43.76,7.87,2.18a2.55,2.55,0,0,1,.9,1.89A3.17,3.17,0,0,1,27,29.82a10.9,10.9,0,0,1-3.38,1.8.5.5,0,0,1-.38,0,.3.3,0,0,1-.16-.19c-.07-.2,0-.37.41-.56,1.7-.79,2.76-1.8,2.76-2.65a1.76,1.76,0,0,0-.6-1.25,6.8,6.8,0,0,0-3.07-1.47,17.71,17.71,0,0,0-4.75-.5,18.44,18.44,0,0,0-1.89.12,5.29,5.29,0,0,0,1.31,6,.37.37,0,0,1,.08.53.36.36,0,0,1-.28.15Zm-2.9-6.57v.15a6.13,6.13,0,0,0-.1.95,5.87,5.87,0,0,0,2.87,5.18.236.236,0,0,0,.3,0,.2.2,0,0,0-.05-.26,5.36,5.36,0,0,1-1.8-4.07,5.55,5.55,0,0,1,.45-2.2V24.9h0c.72-.07,1.35-.12,2-.13,3.51-.08,6.64.71,8,2a2,2,0,0,1,.67,1.4c0,.94-1.09,2-2.89,2.83-.35.16-.33.23-.3.32a.09.09,0,0,0,.06.06.28.28,0,0,0,.22,0,10.67,10.67,0,0,0,3.3-1.74,3,3,0,0,0,1.35-2.28,2.43,2.43,0,0,0-.83-1.73C26,24.25,23,23.44,19.67,23.51h0a19,19,0,0,0-3,.33l-.27.05.17-.21a6,6,0,0,1,4.63-2.33,5.92,5.92,0,0,1,3.71,1.21c.15.13.21.09.28,0s.1-.12,0-.26a6.19,6.19,0,0,0-4.94-2.13,6.57,6.57,0,0,0-3.59,1.25,6.34,6.34,0,0,0-2.24,2.92v.05h-.05a12.36,12.36,0,0,0-2.18.94c-.19.12-.15.21-.13.25s.06.13.24.07c.53-.16,1.1-.31,1.74-.45Z" fill="#202447"/>
    <path id="Caminho_12933" data-name="Caminho 12933" d="M20.15,35.66H20V30.85L21.43,30a.37.37,0,0,1,.38,0,.31.31,0,0,1,.15.29v5a.36.36,0,0,1-.34.38H20.35Zm.1-4.7v4.49h1.33c.18,0,.19-.13.19-.17v-5a.17.17,0,0,0-.05-.12.19.19,0,0,0-.18,0Z" fill="#202447"/>
    <path id="Caminho_12934" data-name="Caminho 12934" d="M18.82,35.69a.27.27,0,0,1-.28-.25V32a.41.41,0,0,1,.21-.36l1.1-.65v4.72h-1Zm.83-4.38-.79.45a.18.18,0,0,0-.1.17v3.46a.06.06,0,0,0,0,.06h.87Z" fill="#202447"/>
    <path id="Caminho_3674-2" data-name="Caminho 3674-2" d="M42.59,42.89a1.9,1.9,0,0,1,1.29-2.35h0a2.08,2.08,0,0,1,1,0A3.44,3.44,0,0,1,43,40a3.41,3.41,0,0,1-.53-1.81,3.13,3.13,0,0,1-.47,1.9,2.91,2.91,0,0,1-1.77.48,3.49,3.49,0,0,1,1.82.45,4,4,0,0,1,.54,1.87Z" fill="#dea100"/>
    <path id="Caminho_3675-2" data-name="Caminho 3675-2" d="M28.92,8.68a4.77,4.77,0,0,1,.62-2.58A5.23,5.23,0,0,1,32,5.33a4.7,4.7,0,0,1-2.54-.62,5.35,5.35,0,0,1-.77-2.49,4.42,4.42,0,0,1-.66,2.58,4.15,4.15,0,0,1-2.49.68,4.69,4.69,0,0,1,2.53.62A4.35,4.35,0,0,1,28.92,8.68Z" fill="#dea100"/>
    <path id="Caminho_3675-2-2" data-name="Caminho 3675-2-2" d="M2.35,52.15a2.55,2.55,0,0,1,.33-1.35A2.67,2.67,0,0,1,4,50.41a2.54,2.54,0,0,1-1.32-.33,2.79,2.79,0,0,1-.4-1.29,2.27,2.27,0,0,1-.34,1.35,2.14,2.14,0,0,1-1.3.34,2.54,2.54,0,0,1,1.32.33A2.22,2.22,0,0,1,2.35,52.15Z" fill="#dea100"/>
    <path id="Caminho_3675" data-name="Caminho 3675" d="M90.76,42.8a3.74,3.74,0,0,1,.48-1.89,4.11,4.11,0,0,1,1.8-.58,4.06,4.06,0,0,1-1.87-.45A4.25,4.25,0,0,1,90.6,38a3.81,3.81,0,0,1-.49,1.92,3.6,3.6,0,0,1-1.81.53,4,4,0,0,1,1.86.45,3.27,3.27,0,0,1,.6,1.9Z" fill="#dea100"/>
    <path id="Caminho_12935" data-name="Caminho 12935" d="M87.53,54.43a.31.31,0,0,1-.32-.23.33.33,0,0,1,.21-.41h.09a.33.33,0,0,1,.41.22.32.32,0,0,1-.22.41h-.08Zm2-.59a.33.33,0,0,1-.11-.65l1.18-.36A.33.33,0,0,1,91,53a.34.34,0,0,1-.22.41l-1.19.37Zm3.08-1a.32.32,0,0,1-.35-.29.33.33,0,0,1,.23-.35c.4-.14.79-.28,1.16-.45a.33.33,0,0,1,.44.19h0a.33.33,0,0,1-.18.43h0c-.38.14-.78.29-1.17.45Zm3-1.18a.32.32,0,0,1-.31-.2.31.31,0,0,1,.13-.43h0q.57-.24,1.11-.51a.34.34,0,0,1,.45.16.32.32,0,0,1-.12.43h0c-.37.18-.75.35-1.14.52a.33.33,0,0,1-.09.02Zm2.89-1.44a.33.33,0,0,1-.34-.32.32.32,0,0,1,.17-.29l1-.63a.34.34,0,0,1,.45.1.32.32,0,0,1-.1.44h0c-.34.22-.7.45-1.07.65a.3.3,0,0,1-.08.04Zm2.69-1.8a.317.317,0,0,1-.21-.57c.32-.25.63-.51.92-.78a.35.35,0,0,1,.47,0,.33.33,0,0,1,0,.45,9.607,9.607,0,0,1-1,.81.33.33,0,0,1-.23.1Zm2.32-2.21a.35.35,0,0,1-.22-.08.33.33,0,0,1,0-.45c.26-.3.51-.62.74-.94a.34.34,0,0,1,.45-.08.33.33,0,0,1,.08.45c-.24.33-.5.67-.77,1a.3.3,0,0,1-.25.12Zm1.8-2.65a.34.34,0,0,1-.34-.33.4.4,0,0,1,0-.15c.18-.35.35-.71.5-1.08a.33.33,0,0,1,.43-.19h0a.34.34,0,0,1,.19.43h0a11.641,11.641,0,0,1-.51,1.14.34.34,0,0,1-.33.18Zm1.09-3h-.08a.32.32,0,0,1-.25-.39h0c.09-.38.16-.78.22-1.17a.333.333,0,0,1,.66.09c-.06.41-.14.82-.23,1.22a.32.32,0,0,1-.33.25Zm.37-3.14h0a.33.33,0,0,1-.33-.33v-.45a4.841,4.841,0,0,0,0-.76.35.35,0,0,1,.31-.36.34.34,0,0,1,.36.31c0,.27,0,.53,0,.79v.45a.33.33,0,0,1-.32.34h0Zm-.3-3.14a.34.34,0,0,1-.34-.27c-.08-.39-.17-.78-.27-1.16a.31.31,0,0,1,.23-.4.33.33,0,0,1,.41.23c.11.39.2.8.29,1.21a.33.33,0,0,1-.26.38h-.06ZM59.72,32.52a.327.327,0,0,1-.07-.65h0l.53-.1.64-.16a.33.33,0,1,1,.18.63h0c-.22.06-.45.12-.67.16l-.58.12Zm-2-.19a.4.4,0,0,1-.15,0,2.14,2.14,0,0,1-.52-.37,2,2,0,0,1-.45-.68.33.33,0,0,1,.16-.44h0a.33.33,0,0,1,.44.17h0a1.41,1.41,0,0,0,.66.7.32.32,0,0,1,.16.43h0a.35.35,0,0,1-.34.17Zm47.84-1.11a.32.32,0,0,1-.32-.2c-.15-.37-.32-.74-.49-1.09a.33.33,0,0,1,.14-.44h0a.33.33,0,0,1,.44.15c.19.37.36.76.51,1.14a.32.32,0,0,1-.15.43h0a.32.32,0,0,1-.14,0Zm-42.77.38a.35.35,0,0,1-.32-.21.32.32,0,0,1,.16-.42h0c.37-.16.74-.33,1.1-.51a.33.33,0,0,1,.45.14h0a.33.33,0,0,1-.13.44h0c-.38.2-.77.38-1.15.54h-.15Zm2.84-1.54a.37.37,0,0,1-.29-.14.32.32,0,0,1,.09-.45c.33-.22.66-.45,1-.71a.34.34,0,0,1,.45,0,.32.32,0,0,1,0,.45h0c-.33.26-.67.51-1,.74a.29.29,0,0,1-.18,0ZM57,29.51h-.13a.32.32,0,0,1-.2-.41h0a5.06,5.06,0,0,1,.64-1.13.34.34,0,0,1,.45-.07.32.32,0,0,1,.07.45,4.21,4.21,0,0,0-.56,1,.34.34,0,0,1-.27.16Zm47.06-1.15a.35.35,0,0,1-.29-.15c-.22-.34-.45-.67-.69-1a.34.34,0,0,1,.07-.45.33.33,0,0,1,.45.07q.38.49.72,1a.33.33,0,0,1-.1.45h0a.26.26,0,0,1-.12.08Zm-36-.37a.3.3,0,0,1-.24-.09.33.33,0,0,1,0-.45c.28-.28.56-.57.83-.88a.35.35,0,0,1,.48,0,.33.33,0,0,1,0,.45c-.28.31-.57.61-.87.89a.29.29,0,0,1-.23.1ZM59,27a.36.36,0,0,1-.26-.11.33.33,0,0,1,0-.45,11.259,11.259,0,0,1,1-.79.33.33,0,0,1,.44.06.32.32,0,0,1-.06.45h0c-.33.25-.64.5-.93.76A.32.32,0,0,1,59,27Zm43.09-1.17a.33.33,0,0,1-.25-.11c-.28-.28-.57-.57-.87-.84a.33.33,0,0,1,0-.45.34.34,0,0,1,.48,0c.3.28.6.58.89.9a.33.33,0,0,1,0,.45.34.34,0,0,1-.24.05Zm-31.9-.29a.36.36,0,0,1-.2-.06.33.33,0,0,1-.08-.45c.23-.32.45-.66.67-1a.35.35,0,0,1,.45-.11.34.34,0,0,1,.12.45h0a10.972,10.972,0,0,1-.69,1,.31.31,0,0,1-.25.13Zm-41.08.9H29a.33.33,0,0,1-.2-.42h0c.16-.38.32-.76.49-1.14a.34.34,0,0,1,.45-.16h0a.32.32,0,0,1,.18.42h0q-.26.56-.48,1.11a.36.36,0,0,1-.32.2ZM61.6,25.09a.35.35,0,0,1-.29-.16.32.32,0,0,1,.11-.44h0c.35-.21.72-.41,1.1-.61A.33.33,0,0,1,63,24a.32.32,0,0,1-.13.44h0c-.37.19-.73.39-1.06.59a.33.33,0,0,1-.16.07Zm38.1-1.4a.32.32,0,0,1-.21-.06c-.32-.24-.65-.48-1-.7a.32.32,0,0,1-.09-.45.33.33,0,0,1,.45-.08,11.141,11.141,0,0,1,1,.71.33.33,0,0,1,0,.45.28.28,0,0,1-.23.16Zm-35.19-.05a.35.35,0,0,1-.32-.19.33.33,0,0,1,.15-.44h0l1.15-.49a.34.34,0,0,1,.44.16h0a.33.33,0,0,1-.15.44h0c-.4.16-.78.32-1.13.48l-.14.05Zm7.33-.86a.4.4,0,0,1-.15,0,.32.32,0,0,1-.17-.43h0c.17-.36.34-.73.48-1.09a.34.34,0,0,1,.44-.2h0a.33.33,0,0,1,.21.41h0c-.15.38-.32.76-.5,1.13a.32.32,0,0,1-.3.21Zm-41.32.81a.33.33,0,0,1-.17,0,.32.32,0,0,1-.14-.44h0c.2-.36.4-.72.62-1.07a.329.329,0,0,1,.57.33h0c-.22.35-.42.7-.61,1.05a.34.34,0,0,1-.27.13ZM97,22a.33.33,0,0,1-.17,0c-.35-.19-.72-.37-1.09-.55a.31.31,0,0,1-.16-.42h0A.34.34,0,0,1,96,20.8l1.12.56a.33.33,0,0,1,.14.44h0A.33.33,0,0,1,97,22Zm-29.48.45a.35.35,0,0,1-.32-.21.33.33,0,0,1,.16-.43h0l1.16-.45a.32.32,0,0,1,.44.18h0a.32.32,0,0,1-.18.42h0l-1.15.45a.34.34,0,0,1-.14.05Zm3.06-1.08a.32.32,0,0,1-.33-.22.33.33,0,0,1,.21-.41h0l1.18-.38a.33.33,0,0,1,.42.21h0a.34.34,0,0,1-.2.41h0l-1.17.38h-.1ZM94,20.65a.17.17,0,0,1-.12,0l-1.16-.4a.32.32,0,0,1-.22-.4h0a.34.34,0,0,1,.42-.21l1.18.41a.32.32,0,0,1,.2.41h0a.33.33,0,0,1-.31.22Zm-20.37-.21a.35.35,0,0,1-.33-.24.34.34,0,0,1,.24-.41l1.21-.3a.33.33,0,0,1,.4.24.34.34,0,0,1-.24.4c-.4.09-.8.19-1.19.3h-.09ZM91,19.72h-.09c-.39-.1-.8-.19-1.2-.26a.34.34,0,0,1-.27-.37h0a.34.34,0,0,1,.39-.26l1.23.27a.32.32,0,0,1,.24.39h0a.35.35,0,0,1-.31.26ZM32.19,20.86a.25.25,0,0,1-.19-.05.32.32,0,0,1-.09-.45c.23-.33.47-.67.72-1a.35.35,0,0,1,.45-.07.33.33,0,0,1,.07.45c-.24.32-.48.66-.71,1a.29.29,0,0,1-.25.12ZM73,19.81a.17.17,0,0,1-.1,0,.33.33,0,0,1-.23-.4c.1-.38.19-.78.27-1.17A.35.35,0,0,1,73.3,18a.33.33,0,0,1,.26.38h0c-.07.4-.17.81-.28,1.21a.32.32,0,0,1-.28.22Zm3.86-.11a.33.33,0,0,1-.07-.65L78,18.82a.33.33,0,0,1,.38.27h0a.33.33,0,0,1-.27.38h0l-1.21.22Zm10.92-.56h0c-.4-.05-.81-.09-1.22-.11a.34.34,0,0,1-.3-.36.33.33,0,0,1,.35-.3h0a6.72,6.72,0,0,1,1.26.12.34.34,0,0,1,.27.38.33.33,0,0,1-.31.27ZM80,19.19a.33.33,0,0,1-.05-.65l1.25-.13a.331.331,0,0,1,.05.66l-1.22.12Zm4.49-.25H83.3a.33.33,0,0,1-.33-.33.34.34,0,0,1,.33-.33h1.21a.34.34,0,0,1,.33.34.33.33,0,0,1-.33.33h0ZM34.1,18.32a.35.35,0,0,1-.22-.08.32.32,0,0,1-.05-.45c.26-.31.54-.63.82-.93a.32.32,0,0,1,.44,0,.31.31,0,0,1,0,.45l-.79.9a.43.43,0,0,1-.16.11Zm39.4-1.63h0a.33.33,0,0,1-.31-.35V15.15a.33.33,0,0,1,.33-.33h0a.32.32,0,0,1,.33.32v1.25a.32.32,0,0,1-.35.3ZM36.31,16a.38.38,0,0,1-.25-.09.33.33,0,0,1,0-.45c.29-.29.6-.58.9-.86a.33.33,0,0,1,.45,0,.31.31,0,0,1,0,.44c-.3.28-.59.57-.9.85A.31.31,0,0,1,36.31,16ZM73.4,13.53a.34.34,0,0,1-.34-.29L73,12.68a3.606,3.606,0,0,0-.13-.6.34.34,0,0,1,.24-.4h0a.34.34,0,0,1,.4.25c.05.21.09.43.13.64s.07.39.1.58a.34.34,0,0,1-.29.38h0Zm-34.72.26a.36.36,0,0,1-.27-.12.33.33,0,0,1,0-.45,12.021,12.021,0,0,1,1-.79.34.34,0,0,1,.45.05.33.33,0,0,1,0,.45h0c-.32.25-.64.52-1,.78a.3.3,0,0,1-.18.06Zm2.52-2a.34.34,0,0,1-.27-.13.32.32,0,0,1,.06-.45h0c.33-.25.66-.49,1-.73a.34.34,0,0,1,.44.08.31.31,0,0,1-.08.45l-1,.71-.18.06Zm31.42-1.35a.32.32,0,0,1-.32-.21c-.14-.37-.3-.74-.45-1.1A.31.31,0,0,1,72,8.7h0a.34.34,0,0,1,.45.16c.18.37.35.76.5,1.15a.33.33,0,0,1-.2.42h0a.23.23,0,0,1-.14,0ZM43.9,10a.33.33,0,0,1-.29-.15.32.32,0,0,1,.09-.45h0c.34-.22.7-.45,1-.65a.33.33,0,0,1,.35.55h0c-.35.21-.7.45-1,.65a.34.34,0,0,1-.2,0Zm2.73-1.67a.33.33,0,0,1-.3-.16.32.32,0,0,1,.11-.44h0l1.09-.6a.34.34,0,0,1,.45.14.33.33,0,0,1-.13.44h0c-.36.18-.72.38-1.08.58a.28.28,0,0,1-.14,0Zm24.5-.69a.31.31,0,0,1-.28-.14,8.271,8.271,0,0,0-.73-1,.331.331,0,1,1,.52-.41c.27.32.52.66.76,1a.32.32,0,0,1-.09.45.26.26,0,0,1-.17,0ZM49.51,6.79a.33.33,0,0,1-.18-.62h0l1.12-.54a.35.35,0,0,1,.45.15h0a.33.33,0,0,1-.14.44h0l-1.11.53a.18.18,0,0,1-.14.04ZM69,5.24a.35.35,0,0,1-.22-.08,9.46,9.46,0,0,0-1-.69.33.33,0,1,1,.35-.55,9.24,9.24,0,0,1,1,.74.31.31,0,0,1,0,.44h0a.36.36,0,0,1-.13.14Zm-16.53.21a.34.34,0,0,1-.31-.2.32.32,0,0,1,.14-.43h0l.85-.35.3-.13a.35.35,0,0,1,.45.18h0a.33.33,0,0,1-.16.44h0l-.3.13-.83.34a.35.35,0,0,1-.15.02Zm3-1.18a.33.33,0,0,1-.12-.64c.4-.14.81-.26,1.19-.38a.33.33,0,0,1,.42.21h0a.33.33,0,0,1-.22.41h0l-1.17.38a.2.2,0,0,1-.11,0ZM66.2,3.65a.25.25,0,0,1-.12,0,9.45,9.45,0,0,0-1.15-.34.33.33,0,0,1-.25-.4h0a.34.34,0,0,1,.41-.24A10.68,10.68,0,0,1,66.31,3a.32.32,0,0,1,.2.41h0a.33.33,0,0,1-.31.24Zm-7.63-.24a.34.34,0,0,1-.33-.26.32.32,0,0,1,.25-.39h0c.41-.09.83-.17,1.23-.23a.34.34,0,0,1,.39.27.33.33,0,0,1-.28.37h0c-.39.07-.8.14-1.2.23ZM63,3h0a8.14,8.14,0,0,0-1.21,0h0a.33.33,0,0,1,0-.66h1.27a.33.33,0,1,1,0,.66Z" fill="#81c7ea"/>
    <path id="Caminho_3675-2-3" data-name="Caminho 3675-2-3" d="M38.44,69.44a3,3,0,0,1,.38-1.57,3.24,3.24,0,0,1,1.51-.45,3,3,0,0,1-1.54-.37,3.24,3.24,0,0,1-.45-1.52,2.63,2.63,0,0,1-.41,1.57,2.43,2.43,0,0,1-1.51.41,2.9,2.9,0,0,1,1.55.38A2.67,2.67,0,0,1,38.44,69.44Z" fill="#dea100"/>
    <path id="Caminho_3675-2-4" data-name="Caminho 3675-2-4" d="M32.36,63.65a1.41,1.41,0,0,1,.19-.81,1.6,1.6,0,0,1,.78-.25,1.45,1.45,0,0,1-.79-.19,1.6,1.6,0,0,1-.25-.79,1.4,1.4,0,0,1-.21.82,1.35,1.35,0,0,1-.78.21,1.51,1.51,0,0,1,.8.2A1.37,1.37,0,0,1,32.36,63.65Z" fill="#dea100"/>
    <path id="Caminho_12936" data-name="Caminho 12936" d="M33.7,67.86,31.91,65.4c-.22-.25-.45-.47-.67-.69-1.6-1.52-3.29-2.18-4.82-1.77a4.24,4.24,0,0,0-.5.18h0l-2.4.65-.38.13h0l-2.07.56-.34.09-2.06.56c-3.47.94-4.73,7.35-2.84,14.32s6.23,11.87,9.68,10.93l2.07-.56.66-.18L30.3,89h.1l2.72-.73h.16c3.51-1,4.83-7.38,2.94-14.37a23.46,23.46,0,0,0-2.52-6.04Z" fill="#dedddc"/>
    <g id="Grupo_10741" data-name="Grupo 10741">
      <g id="Grupo_10740" data-name="Grupo 10740">
        <g id="Camada_2" data-name="Camada 2">
          <g id="Grupo_10737" data-name="Grupo 10737">
            <path id="Caminho_12937" data-name="Caminho 12937" d="M28.24,89.05c-3.36,0-7.23-4.69-9-11.14-1.91-7-.59-13.54,2.94-14.5l2.4-.65a.14.14,0,0,1,.18.1.15.15,0,0,1-.11.18l-2.4.65c-3.37.92-4.6,7.26-2.73,14.14s6.14,11.74,9.53,10.82l2.72-.74a.151.151,0,1,1,.13.27l-2.73.74a3.361,3.361,0,0,1-.93.13Z" fill="#202447"/>
          </g>
          <g id="Grupo_10738" data-name="Grupo 10738">
            <path id="Caminho_12938" data-name="Caminho 12938" d="M25.42,89.81c-1.49,0-3.12-.92-4.66-2.66a21.55,21.55,0,0,1-4.29-8.49,21.49,21.49,0,0,1-.59-9.49c.55-2.76,1.8-4.54,3.53-5l2.41-.65a.14.14,0,0,1,.18.1.15.15,0,0,1-.1.18l-2.41.65c-1.62.44-2.8,2.14-3.32,4.79a21.16,21.16,0,0,0,.59,9.35A20.94,20.94,0,0,0,21,87c1.79,2,3.66,2.9,5.28,2.46L29,88.67a.144.144,0,1,1,.07.28l-2.73.74A3.44,3.44,0,0,1,25.42,89.81Z" fill="#202447"/>
          </g>
          <g id="Grupo_10739" data-name="Grupo 10739">
            <path id="Caminho_12939" data-name="Caminho 12939" d="M23.37,90.37c-3.35,0-7.21-4.7-9-11.15a21.65,21.65,0,0,1-.6-9.49c.55-2.76,1.81-4.54,3.54-5l2.41-.66a.144.144,0,0,1,.07.28l-2.4.66c-1.62.44-2.81,2.14-3.33,4.79a21.16,21.16,0,0,0,.59,9.35C16.55,86,20.82,90.88,24.19,90l2.73-.73a.15.15,0,1,1,.08.28l-2.73.73A3.37,3.37,0,0,1,23.37,90.37Z" fill="#202447"/>
          </g>
        </g>
        <path id="Caminho_12940" data-name="Caminho 12940" d="M30,81c-1.39,0-3-2-3.71-4.75-.82-3-.32-5.72,1.15-6.11.72-.2,1.54.2,2.32,1.11a9.53,9.53,0,0,1,1.77,3.58c.82,3,.31,5.72-1.16,6.12A1.14,1.14,0,0,1,30,81ZM27.83,70.34a.92.92,0,0,0-.29,0c-1.29.35-1.72,2.93-.95,5.76S29,81,30.32,80.63s1.71-2.93.94-5.76a9.09,9.09,0,0,0-1.7-3.47A2.5,2.5,0,0,0,27.83,70.34Z" fill="#202447"/>
        <path id="Caminho_12941" data-name="Caminho 12941" d="M31.08,88.27a4.83,4.83,0,0,1-2.37-.7C25.93,86,23.39,82,22.08,77.13a21.14,21.14,0,0,1-.56-9.49c.56-2.76,1.84-4.54,3.6-5,1.56-.43,3.28.2,5,1.8.24.22.46.46.68.7a.16.16,0,0,1,0,.21.14.14,0,0,1-.2,0c-.21-.23-.43-.46-.66-.68-1.61-1.53-3.23-2.13-4.69-1.73-1.64.44-2.84,2.15-3.39,4.79a20.88,20.88,0,0,0,.56,9.36c1.29,4.77,3.78,8.7,6.49,10.25a4,4,0,0,0,3.1.55c3.43-1,4.7-7.31,2.84-14.19a23.6,23.6,0,0,0-2.49-5.93.15.15,0,0,1,.25-.15,23.86,23.86,0,0,1,2.52,6c1.9,7,.54,13.55-3,14.54a3.82,3.82,0,0,1-1.05.11Z" fill="#202447"/>
      </g>
    </g>
  </g>
</svg>
