<?xml version="1.0" encoding="utf-8"?>
<!-- Generator: Adobe Illustrator 26.5.0, SVG Export Plug-In . SVG Version: 6.00 Build 0)  -->
<svg version="1.1" id="Camada_2_00000145042539726180510750000004867056139141717943_"
	 xmlns="http://www.w3.org/2000/svg" xmlns:xlink="http://www.w3.org/1999/xlink" x="0px" y="0px" viewBox="0 0 40 40"
	 style="enable-background:new 0 0 40 40;" xml:space="preserve">
<style type="text/css">
	.st0{fill:#E1173F;}
</style>
<path class="st0" d="M32.4,15.3c-1.2-2.1-2.9-3.7-5-4.9c-1.9-1.1-3.9-1.7-6-1.8v6.1c1.7,0.2,3.1,0.8,4.3,2c1.3,1.4,2,3.2,2,5.4
	c0,2.2-0.7,4-2,5.4c-1.3,1.4-3,2.1-5,2.1c-1.8,0-3.4-0.6-4.7-1.7l-4.3,4.3c2.5,2.3,5.5,3.4,8.9,3.4c2.5,0,4.8-0.6,6.9-1.8
	c2.1-1.2,3.7-2.9,5-5c1.1-2,1.8-4.3,1.8-6.6C34.2,19.7,33.6,17.4,32.4,15.3"/>
<path class="st0" d="M16,16.5c1.1-1.1,2.4-1.7,4-1.8V4.5c-4,0.3-7.7,2.2-10.4,5.6L16,16.5z"/>
<path class="st0" d="M13.8,21.4c0.1-1.4,0.5-2.7,1.2-3.8l-6.5-6.5c-2.2,3.1-3,7.1-2.6,10.2H13.8z"/>
<path class="st0" d="M13.8,22.9H5.9c0.6,3.6,2.6,6.3,4.8,8.1l4.4-4.4C14.3,25.6,13.9,24.4,13.8,22.9"/>
</svg>
