<?xml version="1.0" encoding="UTF-8"?>
<svg id="Layer_1" data-name="Layer 1" xmlns="http://www.w3.org/2000/svg" viewBox="0 0 360 280">
  <defs>
    <style>
      .cls-1 {
        fill: none;
      }

      .cls-2 {
        fill: #f7b718;
      }

      .cls-3 {
        fill: #f8d560;
      }

      .cls-4 {
        fill: #f5f6f6;
      }

      .cls-5 {
        fill: #fff;
      }

      .cls-6 {
        fill: #dededc;
      }

      .cls-7 {
        fill: #dda227;
      }

      .cls-8 {
        fill: #e0e1e0;
      }

      .cls-9 {
        fill: #212447;
      }

      .cls-10 {
        fill: #202346;
      }

      .cls-11 {
        fill: #3ea57a;
      }

      .cls-12 {
        fill: #87bd40;
      }

      .cls-13 {
        fill: #2b2d56;
      }

      .cls-14 {
        fill: #262a53;
      }

      .cls-15 {
        isolation: isolate;
        opacity: .19;
      }
    </style>
  </defs>
  <g>
    <g id="Grupo_83451" data-name="Grupo 83451">
      <g class="cls-15">
        <path id="Caminho_45545" data-name="Caminho 45545" class="cls-6" d="M215.54,48.3c22.69,4.09,45.37,12.68,61.5,29.15,16.13,16.47,24.35,41.96,15.97,63.44-4.65,11.92-13.76,21.55-23.54,29.81-30.27,25.56-68.37,40.56-107.24,48.19-14.26,2.8-28.82,4.67-43.3,3.47-14.48-1.2-28.95-5.62-40.51-14.4-11.4-8.66-19.9-23.25-16.18-37.07,3.38-12.55,15.5-20.62,27.42-25.78,11.92-5.16,24.93-8.82,34.57-17.54,2.8-2.53,5.38-5.79,5.41-9.57,.03-4.35-3.31-7.96-6.76-10.63-12.15-9.41-28.43-13.76-37.69-26.02-2.84-3.77-4.91-8.71-3.36-13.16,.91-2.6,2.92-4.65,5.04-6.41,12.55-10.4,32.57-13.52,48.7-15.9,28.99-4.29,49.2-1.76,79.94,2.64"/>
        <path class="cls-5" d="M128.16,222.84c-3.17,0-6.23-.13-9.25-.38-15.83-1.31-29.86-6.29-40.56-14.42-5.91-4.49-10.81-10.4-13.79-16.63-3.33-6.97-4.17-14.07-2.43-20.54,2.82-10.48,12.06-19.17,27.48-25.84,2.76-1.2,5.63-2.33,8.41-3.43,9.21-3.64,18.74-7.41,26.13-14.1,3.6-3.25,5.36-6.36,5.38-9.49,.03-3.53-2.23-7.08-6.72-10.55-4.66-3.61-10.01-6.52-15.18-9.33-8.27-4.49-16.81-9.14-22.53-16.71-2.04-2.7-5.2-8.02-3.37-13.25,.98-2.8,3.22-4.92,5.07-6.45,12.79-10.61,33.57-13.68,48.75-15.92,28.76-4.26,49.13-1.77,79.97,2.64l-.03,.19c-30.83-4.4-51.18-6.89-79.92-2.64-15.15,2.24-35.9,5.31-48.65,15.88-1.83,1.52-4.05,3.62-5.01,6.37-1.31,3.76-.09,8.52,3.34,13.07,5.69,7.54,14.22,12.17,22.47,16.65,5.18,2.82,10.54,5.73,15.21,9.35,4.53,3.51,6.82,7.12,6.79,10.7-.02,3.19-1.81,6.34-5.44,9.64-7.41,6.71-16.96,10.48-26.19,14.13-2.77,1.1-5.64,2.23-8.41,3.43-15.36,6.65-24.57,15.3-27.37,25.72-3.81,14.17,5.36,28.78,16.14,36.96,10.67,8.11,24.67,13.08,40.47,14.38,12.47,1.03,25.81-.04,43.28-3.47,43.35-8.51,79.42-24.72,107.2-48.17,12.11-10.22,19.58-19.68,23.52-29.77,7.85-20.13,1.44-45.58-15.95-63.34-14.24-14.54-34.91-24.34-61.45-29.12l.03-.19c26.57,4.79,47.28,14.61,61.55,29.18,8.1,8.27,14.21,18.88,17.2,29.89,3.2,11.78,2.79,23.42-1.21,33.66-3.95,10.13-11.44,19.61-23.57,29.85-14.44,12.19-31.4,22.56-50.42,30.83-17.29,7.52-36.43,13.37-56.87,17.38-13.26,2.6-24.15,3.85-34.08,3.85Z"/>
      </g>
      <path class="cls-14" d="M130.39,230.77c-3.17,0-6.23-.13-9.25-.38-15.85-1.31-29.89-6.3-40.61-14.44-10.86-8.25-20.09-22.96-16.24-37.26,2.83-10.51,12.09-19.22,27.53-25.9,2.76-1.2,5.64-2.33,8.41-3.43,9.21-3.64,18.73-7.4,26.11-14.08,3.58-3.24,5.33-6.32,5.35-9.43,.03-3.5-2.22-7.02-6.68-10.48-4.65-3.61-10-6.51-15.17-9.32-8.27-4.5-16.83-9.15-22.56-16.73-2.05-2.72-5.22-8.07-3.38-13.33,.98-2.81,3.24-4.95,5.1-6.49,12.82-10.63,33.61-13.7,48.79-15.94,28.77-4.26,49.14-1.77,80,2.64v.03s.04-.26,.04-.26c26.59,4.79,47.31,14.62,61.59,29.2,8.11,8.28,14.23,18.91,17.22,29.92,3.21,11.8,2.79,23.46-1.21,33.71-3.95,10.14-11.45,19.63-23.59,29.88-27.82,23.48-63.93,39.71-107.33,48.23-13.27,2.6-24.16,3.85-34.1,3.85ZM166.66,51.73c-9.11,0-18.42,.66-28.84,2.2-15.14,2.24-35.87,5.3-48.61,15.86-1.82,1.51-4.04,3.6-4.99,6.33-1.3,3.73-.09,8.47,3.33,12.99,5.68,7.52,14.2,12.15,22.44,16.63,5.18,2.82,10.54,5.73,15.22,9.35,4.56,3.53,6.85,7.16,6.83,10.77-.02,3.21-1.81,6.39-5.47,9.7-7.43,6.72-16.98,10.5-26.22,14.15-2.77,1.1-5.64,2.23-8.4,3.42-15.33,6.64-24.52,15.27-27.32,25.66-3.8,14.13,5.35,28.7,16.11,36.88,10.66,8.1,24.64,13.06,40.42,14.37,12.45,1.03,25.79-.04,43.25-3.47,43.34-8.51,79.39-24.71,107.16-48.15,12.1-10.21,19.56-19.66,23.49-29.74,7.84-20.1,1.43-45.52-15.94-63.25-14.23-14.53-34.88-24.32-61.4-29.1l-.03,.23c-19.65-2.81-35.04-4.83-51.05-4.83Z"/>
    </g>
    <g>
      <path id="Caminho_99341" data-name="Caminho 99341" class="cls-3" d="M202.67,90.5c-2.13,2.57-2.25,6.09-.37,8.12,.07,.07,.14,.14,.21,.21s.11,.11,.17,.16c2.28,1.95,5.96,1.3,8.23-1.43,2.09-2.52,2.25-5.93,.49-7.98-.13-.15-.26-.28-.41-.42l-.09-.08c-2.28-1.95-5.97-1.31-8.24,1.43"/>
      <path id="Caminho_99342" data-name="Caminho 99342" class="cls-2" d="M201.99,89.84c-2.13,2.58-2.25,6.1-.35,8.12l.17,.18,.68,.7c-1.89-2.03-1.77-5.54,.37-8.12,2.27-2.74,5.96-3.37,8.23-1.44l.09,.08-.66-.68v-.02c-.09-.09-.19-.18-.29-.27-2.3-1.95-5.98-1.3-8.25,1.44"/>
      <path id="Caminho_99343" data-name="Caminho 99343" class="cls-9" d="M204.32,96.45c-.51-1.33-.24-2.83,.71-3.9,.59-.73,1.42-1.24,2.34-1.42,.83-.18,1.7,.04,2.35,.58,1.29,1.35,1.29,3.49-.01,4.83-.59,.73-1.42,1.24-2.34,1.42-.83,.18-1.7-.04-2.35-.58-.3-.26-.54-.58-.7-.93m5.94-3.74c-.15-.34-.37-.64-.65-.87-.62-.51-1.43-.71-2.21-.54-.89,.18-1.68,.66-2.24,1.37-1.24,1.28-1.26,3.31-.03,4.6,.62,.51,1.43,.71,2.21,.54,.89-.18,1.68-.66,2.24-1.37,.91-1.02,1.17-2.45,.69-3.73"/>
      <path id="Caminho_99344" data-name="Caminho 99344" class="cls-9" d="M207.41,94.1c.01,.11,.05,.21,.1,.3,.06,.09,.14,.21,.25,.36,.12,.15,.22,.31,.31,.47,.07,.14,.11,.29,.11,.45,0,.2-.06,.39-.17,.56-.13,.23-.34,.4-.59,.47-.26,.07-.53,.04-.76-.08l-.38,.61-.28-.17,.37-.61c-.17-.13-.3-.29-.4-.48-.11-.19-.18-.4-.22-.62l.4-.28c.03,.22,.1,.43,.21,.62,.09,.17,.22,.31,.38,.41,.15,.11,.33,.15,.51,.14,.15-.02,.28-.11,.36-.24,.06-.1,.09-.21,.08-.33,0-.11-.04-.21-.1-.31-.08-.12-.16-.25-.25-.36-.12-.15-.22-.3-.31-.46-.07-.14-.11-.29-.11-.45,0-.2,.07-.39,.18-.55,.12-.22,.33-.38,.57-.45,.25-.06,.5-.03,.73,.08l.33-.56,.28,.17-.33,.56c.13,.1,.25,.22,.34,.36,.09,.13,.17,.27,.22,.43l-.4,.3c-.06-.16-.15-.32-.25-.46-.09-.12-.19-.22-.31-.3-.13-.09-.28-.14-.44-.13-.13,.01-.25,.09-.32,.21-.08,.1-.12,.22-.11,.35"/>
      <path id="Caminho_99345" data-name="Caminho 99345" class="cls-9" d="M202.13,98.98c-.96-2.47-.45-5.28,1.32-7.26,1.1-1.37,2.66-2.31,4.39-2.64,1.56-.31,3.19,.1,4.41,1.12l.1,.09c.15,.14,.3,.29,.43,.45,1.9,2.22,1.68,5.88-.51,8.52-1.1,1.37-2.66,2.31-4.39,2.64-1.56,.32-3.18-.09-4.41-1.11-.06-.05-.1-.09-.19-.16s-.16-.15-.23-.23c-.39-.42-.7-.89-.93-1.41m11.33-6.96c-.2-.44-.46-.85-.77-1.22-.13-.15-.28-.3-.43-.43l-.1-.09c-1.2-1-2.79-1.4-4.32-1.1-1.7,.33-3.23,1.25-4.32,2.6-1.74,1.95-2.24,4.7-1.3,7.14,.23,.51,.53,.97,.91,1.38,.07,.07,.14,.14,.22,.22,.06,.06,.12,.11,.18,.16,1.2,1,2.79,1.4,4.32,1.09,1.7-.33,3.23-1.25,4.32-2.6,1.73-1.96,2.23-4.72,1.29-7.15"/>
      <path id="Caminho_99346" data-name="Caminho 99346" class="cls-3" d="M216.57,64.98c-4.15,8.44-13.03,12.8-20.42,10.3-.26-.09-.52-.19-.79-.3s-.4-.17-.6-.26c-7.63-3.61-10.23-13.81-5.81-22.8,4.06-8.28,12.64-12.61,19.93-10.45,.52,.16,1.03,.35,1.53,.56l.32,.15c7.64,3.61,10.24,13.81,5.82,22.8"/>
      <path id="Caminho_99347" data-name="Caminho 99347" class="cls-2" d="M219.05,65.97c-4.16,8.46-13.06,12.82-20.46,10.26l-.66-.24-2.57-.93c7.39,2.5,16.27-1.86,20.42-10.3,4.42-8.99,1.81-19.18-5.8-22.8l-.32-.15,2.5,.9,.04-.02c.34,.13,.68,.27,1.02,.44,7.65,3.66,10.23,13.86,5.83,22.85"/>
      <path id="Caminho_99348" data-name="Caminho 99348" class="cls-9" d="M199.42,67.54c-1.1,0-2.19-.24-3.18-.71-4.28-2.02-5.71-7.81-3.21-12.91,2.51-5.1,8.03-7.6,12.3-5.58,2.12,1.04,3.65,3,4.15,5.32,.58,2.57,.25,5.25-.95,7.6-1.14,2.39-3.08,4.32-5.47,5.46-1.14,.53-2.39,.82-3.65,.83m-6.1-13.48c-2.43,4.94-1.06,10.54,3.06,12.49,2.09,.94,4.5,.89,6.56-.12,2.33-1.1,4.21-2.98,5.32-5.31,1.17-2.28,1.49-4.89,.93-7.39-.48-2.22-1.94-4.1-3.98-5.11-4.12-1.95-9.44,.49-11.87,5.43"/>
      <path id="Caminho_99349" data-name="Caminho 99349" class="cls-9" d="M200.31,54.42c.11,.28,.27,.52,.48,.73,.22,.2,.52,.45,.94,.77,.42,.31,.82,.66,1.2,1.03,.3,.32,.52,.71,.63,1.13,.26,1.29-.29,2.6-1.38,3.33-.66,.37-1.43,.5-2.17,.35l-.6,1.93-.89-.25,.59-1.91c-.55-.22-1.04-.55-1.45-.98-.43-.43-.78-.93-1.03-1.49l.91-1.05c.24,.56,.58,1.07,1.02,1.49,.38,.38,.84,.66,1.35,.82,.48,.17,1.01,.17,1.49-.01,.4-.16,.71-.51,.82-.93,.11-.31,.11-.65,0-.96-.1-.29-.27-.55-.5-.75-.3-.28-.62-.54-.95-.78-.42-.3-.82-.64-1.19-1-.3-.32-.52-.71-.63-1.13-.12-.53-.09-1.09,.1-1.6,.19-.68,.63-1.27,1.25-1.62,.63-.35,1.36-.46,2.07-.32l.52-1.75,.89,.25-.52,1.75c.43,.17,.84,.41,1.2,.71,.35,.28,.65,.61,.91,.98l-.88,1.1c-.29-.39-.63-.74-1.02-1.04-.32-.25-.69-.45-1.07-.58-.41-.16-.87-.17-1.29-.04-.36,.13-.63,.43-.73,.8-.15,.32-.17,.68-.06,1.02"/>
      <path id="Caminho_99350" data-name="Caminho 99350" class="cls-9" d="M195.37,76.14c-1.57,0-3.14-.25-4.63-.75-.27-.09-.53-.2-.84-.32s-.44-.19-.64-.29c-4.03-1.97-6.95-5.66-7.94-10.03-1.14-4.82-.53-9.89,1.72-14.31,2-4.16,5.27-7.57,9.34-9.74,3.65-2,7.94-2.5,11.95-1.4,.56,.17,1.11,.37,1.64,.6l.35,.16c4.04,1.97,6.96,5.66,7.96,10.04,1.14,4.82,.53,9.89-1.72,14.31-2.04,4.24-5.41,7.71-9.59,9.87-2.35,1.2-4.95,1.84-7.59,1.87m4.83-37.11c-2.68,.03-5.31,.69-7.68,1.95-4.01,2.14-7.23,5.51-9.2,9.6-2.22,4.35-2.83,9.34-1.7,14.09,.97,4.28,3.83,7.9,7.77,9.82,.2,.1,.33,.16,.62,.28,.31,.12,.56,.23,.83,.32,3.97,1.26,8.29,.86,11.97-1.1,4.12-2.13,7.44-5.54,9.45-9.72,2.22-4.35,2.83-9.34,1.7-14.09-.97-4.29-3.83-7.9-7.78-9.83l-.34-.16c-.52-.22-1.05-.42-1.6-.59-1.31-.38-2.67-.58-4.03-.57"/>
      <path id="Caminho_99351" data-name="Caminho 99351" class="cls-3" d="M230.7,84.55c2.95,6,9.26,9.1,14.52,7.32,.19-.06,.37-.14,.56-.21s.28-.12,.43-.19c5.43-2.57,7.27-9.82,4.13-16.21-2.88-5.89-8.99-8.96-14.17-7.43-.37,.11-.73,.25-1.09,.4l-.23,.11c-5.43,2.57-7.28,9.82-4.14,16.21"/>
      <path id="Caminho_99352" data-name="Caminho 99352" class="cls-2" d="M228.93,85.25c2.96,6.01,9.29,9.11,14.55,7.29l.47-.17,1.83-.66c-5.25,1.78-11.57-1.32-14.52-7.32-3.14-6.39-1.28-13.64,4.12-16.21l.23-.11-1.78,.64h-.03c-.24,.08-.48,.18-.72,.3-5.44,2.6-7.27,9.86-4.14,16.24"/>
      <path id="Caminho_99353" data-name="Caminho 99353" class="cls-9" d="M242.9,86.47c-2.87-.16-5.41-1.9-6.59-4.52-1.81-3.67-.76-7.85,2.33-9.31s7.08,.34,8.88,4.01c.86,1.69,1.1,3.62,.68,5.47-.36,1.67-1.47,3.09-3.01,3.85-.72,.34-1.5,.51-2.3,.51m-1.96-13.92c-.73,0-1.45,.16-2.11,.47-2.88,1.36-3.83,5.29-2.13,8.75,1.7,3.46,5.43,5.18,8.31,3.82,1.42-.7,2.45-2.01,2.78-3.57,.4-1.75,.17-3.59-.65-5.19-1.1-2.47-3.49-4.12-6.19-4.28"/>
      <path id="Caminho_99354" data-name="Caminho 99354" class="cls-9" d="M241.16,78.84c.2,.07,.42,.09,.63,.07,.21-.03,.49-.08,.85-.16,.37-.09,.74-.15,1.12-.19,.31-.02,.63,.04,.92,.16,.36,.17,.66,.44,.87,.78,.31,.42,.45,.95,.38,1.47-.09,.52-.36,1-.78,1.33l.81,1.19-.54,.37-.81-1.18c-.37,.2-.78,.32-1.2,.35-.44,.04-.88,0-1.3-.11l-.18-.96c.42,.12,.86,.17,1.3,.12,.38-.03,.74-.15,1.06-.36,.31-.18,.55-.47,.66-.81,.09-.29,.03-.61-.15-.86-.12-.2-.31-.35-.53-.44-.21-.07-.43-.1-.65-.07-.29,.04-.58,.09-.87,.17-.36,.09-.73,.16-1.1,.19-.32,.02-.63-.04-.92-.17-.35-.17-.65-.44-.86-.77-.3-.4-.43-.91-.35-1.4,.09-.5,.36-.95,.75-1.26l-.75-1.06,.54-.37,.75,1.06c.29-.16,.61-.27,.93-.33,.32-.06,.64-.08,.96-.06l.22,.97c-.35-.02-.7,0-1.04,.08-.29,.06-.56,.17-.81,.32-.27,.15-.49,.39-.6,.68-.09,.25-.04,.54,.12,.75,.12,.22,.31,.4,.54,.49"/>
      <path id="Caminho_99355" data-name="Caminho 99355" class="cls-9" d="M245.78,92.48c-1.88-.02-3.72-.47-5.39-1.33-2.97-1.54-5.37-4-6.81-7.02-1.6-3.14-2.04-6.74-1.22-10.17,.71-3.11,2.79-5.74,5.66-7.13l.24-.11c.38-.16,.77-.31,1.17-.43,5.61-1.66,12.11,1.75,15.14,7.92,1.6,3.14,2.04,6.74,1.22,10.17-.7,3.11-2.78,5.73-5.64,7.13-.14,.07-.24,.12-.45,.2s-.41,.16-.6,.23c-1.06,.36-2.17,.54-3.29,.53m-3.44-26.39c-.97,0-1.93,.14-2.86,.41-.39,.12-.77,.26-1.14,.42l-.24,.11c-2.81,1.37-4.84,3.94-5.53,6.99-.8,3.38-.37,6.93,1.21,10.02,1.43,2.97,3.79,5.4,6.72,6.91,2.62,1.39,5.68,1.67,8.51,.78,.19-.06,.37-.14,.59-.22s.3-.13,.44-.2c2.81-1.37,4.84-3.94,5.53-6.99,.8-3.38,.37-6.93-1.21-10.02-2.47-5.05-7.3-8.21-12.01-8.21"/>
    </g>
    <g>
      <g>
        <path id="Caminho_53810" data-name="Caminho 53810" class="cls-4" d="M154.41,244.2h-30.04c-3.93,0-7.11-3.18-7.11-7.11h0v-68.49c0-3.93,3.18-7.11,7.11-7.11h30.06c3.93,0,7.11,3.18,7.11,7.11h0v68.49c0,3.93-3.18,7.11-7.11,7.11h0"/>
        <path id="Caminho_53811" data-name="Caminho 53811" class="cls-4" d="M259.69,244.2h-30.05c-3.93,0-7.11-3.18-7.11-7.11h0V120.14c0-3.93,3.19-7.11,7.11-7.11h30.05c3.93,0,7.11,3.19,7.11,7.11v116.94c0,3.93-3.18,7.11-7.11,7.11h0"/>
        <path id="Caminho_53812" data-name="Caminho 53812" class="cls-4" d="M207.89,244.2h-30.05c-3.93,0-7.11-3.18-7.11-7.11h0v-100.24c0-3.93,3.19-7.11,7.11-7.11h30.05c3.93,0,7.11,3.19,7.11,7.11h0v100.23c0,3.93-3.18,7.11-7.11,7.11h0"/>
        <path class="cls-13" d="M148.48,239.32h-30.06c-4.22,0-7.65-3.43-7.65-7.65v-68.49c0-4.22,3.43-7.65,7.65-7.65h30.05c4.22,0,7.65,3.43,7.65,7.65v68.49c0,4.22-3.43,7.65-7.65,7.65Zm-30.05-82.71c-3.63,0-6.58,2.95-6.58,6.58v68.49c0,3.63,2.95,6.58,6.58,6.58h30.05c3.63,0,6.58-2.95,6.58-6.58v-68.49c0-3.63-2.95-6.58-6.58-6.58h-30.05Z"/>
        <path class="cls-13" d="M253.75,239.32h-30.05c-4.22,0-7.65-3.43-7.65-7.65V114.73c0-4.22,3.43-7.65,7.65-7.65h30.05c4.22,0,7.65,3.43,7.65,7.65v116.94c0,4.22-3.43,7.65-7.65,7.65Zm-30.05-131.17c-3.63,0-6.58,2.95-6.58,6.58v116.94c0,3.63,2.95,6.58,6.58,6.58h30.05c3.63,0,6.58-2.95,6.58-6.58V114.73c0-3.63-2.95-6.58-6.58-6.58h-30.05Z"/>
        <path class="cls-13" d="M201.95,239.32h-30.05c-4.22,0-7.65-3.43-7.65-7.65v-100.23c0-4.22,3.43-7.65,7.65-7.65h30.05c4.22,0,7.65,3.43,7.65,7.65v100.23c0,4.22-3.43,7.65-7.65,7.65Zm-30.05-114.46c-3.63,0-6.58,2.95-6.58,6.58v100.23c0,3.63,2.95,6.58,6.58,6.58h30.05c3.63,0,6.58-2.95,6.58-6.58v-100.23c0-3.63-2.95-6.58-6.58-6.58h-30.05Z"/>
      </g>
      <g>
        <path class="cls-12" d="M126.45,205.13c-.57,0-1.13-.31-1.41-.85-.41-.78-.11-1.75,.67-2.16l47.28-24.92c1.12-.59,2.46-.59,3.58,0l11.33,5.98c.2,.1,.43,.1,.63-.02l9.94-5.9c1.04-.62,2.33-.71,3.45-.24l5,2.1c.19,.08,.42,.06,.59-.05l31.08-19.73c.74-.47,1.73-.25,2.2,.49,.47,.74,.25,1.73-.49,2.2l-31.08,19.73c-1.06,.67-2.39,.78-3.54,.3l-5-2.1c-.19-.08-.4-.06-.58,.04l-9.94,5.9c-1.14,.68-2.58,.71-3.75,.09l-11.33-5.98c-.19-.1-.41-.1-.6,0l-47.28,24.92c-.24,.12-.49,.18-.74,.18Z"/>
        <path class="cls-12" d="M245.87,166.44c-.88,0-1.6-.71-1.6-1.6v-8.98h-8.98c-.88,0-1.6-.71-1.6-1.6s.71-1.6,1.6-1.6h10.58c.88,0,1.6,.71,1.6,1.6v10.58c0,.88-.71,1.6-1.6,1.6Z"/>
      </g>
    </g>
    <g>
      <path id="Caminho_99334" data-name="Caminho 99334" class="cls-4" d="M79.76,85.87c-.28-24.22,19.13-44.08,43.35-44.36,24.22-.28,44.08,19.13,44.36,43.35,.28,24.14-19.01,43.97-43.16,44.36-24.26,.3-44.19-19.09-44.56-43.34m64.82-1.05c-.24-11.58-9.82-20.77-21.4-20.53-11.58,.24-20.77,9.82-20.53,21.4,.24,11.54,9.76,20.72,21.3,20.53,11.6-.22,20.83-9.8,20.63-21.4"/>
      <path id="Caminho_99335" data-name="Caminho 99335" class="cls-8" d="M79.76,85.87c-.42-24.26,18.88-44.28,43.15-44.76l.37,22.99c-11.63,.28-20.83,9.94-20.55,21.58,.28,11.49,9.72,20.64,21.22,20.55l.37,22.99c-24.26,.31-44.19-19.08-44.55-43.34"/>
      <path id="Caminho_99336" data-name="Caminho 99336" class="cls-11" d="M118.97,37.57c27.67-.66,50.63,21.23,51.29,48.89,0,.34,.01,.68,.01,1.02l-26.77,.43c-.22-13.59-10.56-22.14-24.08-21.92l-.45-28.42Z"/>
      <path id="Caminho_99337" data-name="Caminho 99337" class="cls-10" d="M119.27,124.66c-24.14-.09-43.76-19.49-44.12-43.63-.42-24.42,19.01-44.57,43.43-45.05,11.72-.22,23.04,4.29,31.4,12.5,17.57,17.08,17.98,45.16,.9,62.74-8.13,8.37-19.22,13.19-30.88,13.44h-.73m-43.55-43.63c.45,24.06,20.33,43.2,44.39,42.74,24.06-.45,43.2-20.33,42.74-44.39-.22-11.52-4.99-22.48-13.26-30.49-8.26-8.1-19.43-12.55-31-12.34-24.11,.47-43.28,20.37-42.87,44.47m43.56,20.65c-11.62-.04-21.07-9.39-21.24-21.01-.21-11.76,9.15-21.47,20.91-21.7,5.64-.11,11.09,2.06,15.12,6.02,8.46,8.22,8.65,21.75,.43,30.21-3.91,4.03-9.25,6.35-14.86,6.47h-.35m.02-42.13h-.34c-11.48,.23-20.6,9.73-20.37,21.21,.11,5.48,2.38,10.69,6.31,14.5,3.92,3.84,9.22,5.95,14.72,5.86,11.48-.24,20.59-9.75,20.34-21.23-.12-5.46-2.38-10.66-6.3-14.47-3.84-3.76-9-5.87-14.37-5.86"/>
      <path class="cls-10" d="M119.27,124.84h0c-11.72-.04-22.77-4.61-31.1-12.85-8.33-8.24-13.02-19.23-13.19-30.95-.42-24.46,19.14-44.75,43.6-45.23,11.7-.21,23.18,4.36,31.53,12.55,17.61,17.12,18.02,45.37,.9,62.99-8.21,8.45-19.22,13.24-31.01,13.49-.24,0-.49,0-.73,0Zm.1-88.69c-.26,0-.53,0-.79,0-24.27,.48-43.67,20.61-43.25,44.87,.35,23.87,20.07,43.37,43.94,43.46,.24,0,.48,0,.72,0,11.69-.25,22.61-5,30.76-13.39,16.98-17.48,16.58-45.51-.9-62.49-8.09-7.94-19.16-12.46-30.49-12.46Zm-.11,87.8c-11.37,0-22.11-4.33-30.32-12.23-8.42-8.11-13.17-19-13.39-30.69h0c-.41-24.15,18.89-44.18,43.04-44.65,11.55-.2,22.88,4.3,31.12,12.39,8.37,8.1,13.1,18.97,13.32,30.61,.45,24.12-18.8,44.11-42.91,44.56-.28,0-.57,0-.85,0Zm-43.37-42.93c.22,11.59,4.94,22.4,13.29,30.44,8.15,7.85,18.8,12.14,30.08,12.14,.28,0,.56,0,.84,0,23.92-.45,43.02-20.28,42.57-44.21-.22-11.55-4.91-22.33-13.21-30.37-8.17-8.02-19.43-12.49-30.87-12.29-23.95,.47-43.1,20.34-42.69,44.29h0Zm43.39,20.83h0c-11.64-.04-21.25-9.54-21.42-21.18-.21-11.83,9.25-21.64,21.08-21.88,5.67-.1,11.21,2.11,15.25,6.07,8.52,8.28,8.71,21.94,.44,30.46-3.97,4.08-9.29,6.4-14.99,6.52h-.36Zm.05-42.7c-.13,0-.26,0-.38,0-11.64,.23-20.94,9.88-20.74,21.52,.17,11.45,9.62,20.79,21.07,20.84h.35c5.6-.13,10.84-2.41,14.74-6.43,8.14-8.38,7.95-21.82-.43-29.96-3.88-3.81-9.18-5.97-14.61-5.97Zm-.07,42.13c-5.38,0-10.64-2.14-14.48-5.91-3.98-3.87-6.24-9.05-6.35-14.6-.12-5.6,1.95-10.91,5.83-14.95,3.88-4.04,9.1-6.33,14.69-6.45h.34s.01,0,.02,0c5.44,0,10.58,2.1,14.47,5.91,3.98,3.86,6.23,9.05,6.35,14.59,.25,11.56-8.96,21.16-20.52,21.41-.12,0-.24,0-.36,0Zm-.3-41.56c-5.5,.11-10.63,2.37-14.45,6.34-3.81,3.97-5.85,9.19-5.73,14.7,.11,5.46,2.33,10.56,6.25,14.36,3.86,3.79,9.17,5.9,14.59,5.81,11.36-.24,20.41-9.68,20.17-21.05-.12-5.45-2.34-10.55-6.25-14.35-3.79-3.72-8.79-5.78-14.09-5.81h-.5Z"/>
      <path id="Caminho_99339" data-name="Caminho 99339" class="cls-10" d="M119.27,124.66c-24.14-.09-43.76-19.49-44.12-43.63-.42-24.42,19.01-44.57,43.43-45.05,.07,0,.15,.03,.2,.08,.05,.05,.09,.13,.09,.2l.37,22.99c0,.16-.12,.28-.28,.29-11.48,.24-20.59,9.74-20.35,21.22,.11,5.47,2.38,10.67,6.3,14.48,3.92,3.84,9.22,5.95,14.71,5.86,.07,0,.15,.03,.2,.08,.05,.05,.09,.12,.09,.2l.37,22.99c0,.16-.12,.28-.28,.29h-.72m-43.55-43.64c.35,23.83,19.72,42.98,43.55,43.07h.43l-.36-22.42h-.06c-11.62-.04-21.07-9.39-21.24-21.01-.2-11.65,8.98-21.3,20.62-21.68l-.36-22.42c-23.99,.63-42.99,20.47-42.58,44.46"/>
      <path class="cls-10" d="M120,124.84c-.2,0-.39,0-.58,0h-.16c-11.72-.04-22.77-4.61-31.1-12.85-8.33-8.24-13.02-19.23-13.19-30.95-.42-24.46,19.14-44.75,43.6-45.23,.12,0,.24,.05,.32,.12,.09,.09,.14,.21,.15,.33l.37,23c0,.25-.2,.46-.45,.47-11.37,.24-20.42,9.68-20.18,21.04,.11,5.45,2.33,10.55,6.24,14.35,3.79,3.7,8.96,5.81,14.26,5.81,.11,0,.22,0,.33,0,.12,0,.24,.05,.32,.12,.09,.09,.14,.2,.15,.33l.37,23c0,.25-.19,.46-.45,.47Zm-.42-.35c.14,0,.28,0,.42,0,.05,0,.1-.05,.1-.11l-.37-23s-.01-.06-.03-.08c-.02-.02-.05-.03-.08-.03-5.49,.1-10.9-2.06-14.83-5.91-3.98-3.87-6.23-9.05-6.35-14.6-.24-11.56,8.97-21.16,20.53-21.4,.06,0,.11-.05,.1-.11l-.37-22.99s-.01-.06-.03-.08c-.02-.02-.05-.03-.08-.03-24.26,.47-43.66,20.6-43.25,44.87,.35,23.87,20.07,43.37,43.94,43.46h.31Zm.3-.22h-.61c-11.57-.04-22.47-4.55-30.7-12.69-8.23-8.14-12.85-18.99-13.02-30.56h0c-.2-11.65,4.13-22.7,12.19-31.12,8.06-8.42,18.91-13.22,30.56-13.52h.18s0,.17,0,.17l.36,22.59h-.17c-11.47,.38-20.65,10.03-20.46,21.51,.17,11.45,9.62,20.8,21.07,20.84h.24l.36,22.77Zm-1.75-87.53c-23.71,.72-42.64,20.54-42.23,44.28h0c.35,23.56,19.81,42.81,43.37,42.9h.25l-.35-22.07c-11.59-.1-21.14-9.58-21.31-21.18-.2-11.61,9.04-21.38,20.62-21.85l-.35-22.07Z"/>
    </g>
    <path id="Caminho_53804" data-name="Caminho 53804" class="cls-7" d="M79.86,139.97c-.09-2.28,.49-4.53,1.67-6.48,1.89-1.16,4.06-1.8,6.28-1.86-2.23,.08-4.44-.47-6.38-1.57-1.15-1.9-1.79-4.06-1.87-6.28,.1,2.28-.48,4.53-1.67,6.48-1.85,1.16-4,1.77-6.18,1.77,2.23-.08,4.44,.47,6.38,1.57,1.19,1.91,1.8,4.13,1.77,6.38"/>
    <path id="Caminho_53804-2" data-name="Caminho 53804" class="cls-7" d="M178.96,116.1c-.11-2.78,.6-5.52,2.03-7.9,2.31-1.42,4.95-2.2,7.66-2.27-2.72,.09-5.41-.57-7.78-1.92-1.4-2.32-2.18-4.95-2.27-7.66,.12,2.78-.58,5.53-2.03,7.9-2.26,1.42-4.87,2.16-7.54,2.15,2.72-.09,5.41,.57,7.78,1.92,1.45,2.33,2.2,5.03,2.15,7.78"/>
    <path id="Caminho_53808" data-name="Caminho 53808" class="cls-7" d="M90.67,196.68c-.03-1.4,.32-2.78,1-4,1.16-.68,2.46-1.09,3.8-1.2-1.35,.01-2.69-.3-3.9-.9-.7-1.19-1.11-2.52-1.2-3.9,.03,1.4-.32,2.78-1,4-1.15,.7-2.46,1.07-3.8,1.1,1.35-.01,2.69,.3,3.9,.9,.8,1.18,1.22,2.57,1.2,4"/>
    <path id="Caminho_53809" data-name="Caminho 53809" class="cls-7" d="M286.4,154.27c-.03-1.46,.33-2.91,1.05-4.19,1.22-.72,2.58-1.15,3.98-1.26-1.42,.01-2.82-.31-4.09-.94-.73-1.25-1.16-2.65-1.26-4.09,.03,1.47-.33,2.91-1.05,4.19-1.2,.73-2.58,1.13-3.98,1.15,1.42-.01,2.82,.31,4.09,.94,.84,1.24,1.28,2.7,1.26,4.19"/>
  </g>
  <rect id="Retângulo_4" data-name="Retângulo 4" class="cls-1" width="360" height="280"/>
</svg>