<svg id="Camada_1" data-name="Camada 1" xmlns="http://www.w3.org/2000/svg" viewBox="0 0 130 100"><defs><style>.cls-1,.cls-10{fill:#dedddc;}.cls-1{isolation:isolate;}.cls-15,.cls-2,.cls-3{fill:none;}.cls-2,.cls-3,.cls-7{stroke:#202447;}.cls-2,.cls-7{stroke-miterlimit:10;}.cls-2,.cls-3{stroke-width:0.25px;}.cls-15,.cls-3{stroke-linecap:round;stroke-linejoin:round;}.cls-4{fill:#e51a58;}.cls-5,.cls-7{fill:#202447;}.cls-6{fill:#dcdcda;}.cls-7{stroke-width:0.05px;}.cls-8{fill:#e51a57;}.cls-9{fill:#dea100;}.cls-11{fill:#bcbcbc;}.cls-12{fill:#efefee;}.cls-13{fill:#86bc25;}.cls-14{fill:#87bc28;}.cls-15{stroke:#68c3eb;stroke-width:0.75px;stroke-dasharray:2.65 2.65;}</style></defs><path class="cls-1" d="M112.7,15.93H58.25V12.54h.62a.48.48,0,0,0,.5-.44V10a.52.52,0,0,0-.43-.48H47.8c-.25,0-.38.13-.5.48V12a.52.52,0,0,0,.44.5h.82v3.39H33.27L26.36,38.12v5h8V67.7h74.17V43.13h11v-5h0Z"/><path class="cls-2" d="M108.4,13.29H54V9.91h.63a.48.48,0,0,0,.48-.44V7.34a.48.48,0,0,0-.44-.5H43.54c-.26,0-.38.18-.48.5V9.41a.53.53,0,0,0,.43.5h.82v3.38H29l-6.87,22.2v4.94h8V65h74.16V40.43h11V35.49h0Z"/><line class="cls-3" x1="27.49" y1="34.42" x2="103.9" y2="34.42"/><path class="cls-4" d="M67.8,46.08H58a1.08,1.08,0,0,0-1.18,1s0,.06,0,.09v17H69.17V47.33a1.25,1.25,0,0,0-1.23-1.26Z"/><path class="cls-5" d="M79.2,45.2H96.4c.37,0,.69.25.69.5v6.69c0,.25-.32.5-.69.5H79.2c-.37,0-.69-.25-.69-.5V45.7a.58.58,0,0,1,.66-.5Z"/><path class="cls-5" d="M41.9,45.2h5.26c.37,0,.75.25.75.5v9.47c0,.25-.31.5-.75.5H41.9c-.37,0-.75-.25-.75-.5V45.7A.83.83,0,0,1,41.9,45.2Z"/><path class="cls-6" d="M50.18,92.34l.06,3.7a3.14,3.14,0,0,0,3.14,3.07h2.06a3,3,0,0,0,2.2-1A3.14,3.14,0,0,0,58.52,96l-.07-3.82.32-.38A5.27,5.27,0,0,0,60,88.31L59.77,81a4.9,4.9,0,0,0-.69-2.5l-1.75-3.14,4.26-1.19a3.11,3.11,0,0,0,2.26-3v-.86a3.1,3.1,0,0,0-3.12-3.07h0l-5.39-.06a2.64,2.64,0,0,0-1.88.75l-.13.13L49.56,62.2a7.27,7.27,0,0,0-6.15-3.34l-19.31.06a7,7,0,0,0-6.33,3.95L14.9,68.63l-.81-.69a2.85,2.85,0,0,0-1.82-.62l-5.14.19a3.1,3.1,0,0,0-3,3.13v.88A3.15,3.15,0,0,0,6.8,74.58l4.78.7L9.64,78a5.1,5.1,0,0,0-1,3.14l.25,7.52a5.22,5.22,0,0,0,1.38,3.38v3.64a3.55,3.55,0,0,0,1.07,2.51,3.3,3.3,0,0,0,2.57,1h1.88a3.69,3.69,0,0,0,2.57-1.07,3.5,3.5,0,0,0,1-2.57l-.06-3.2Z"/><path class="cls-2" d="M47.48,90l.07,3.7a3.13,3.13,0,0,0,3.13,3.07h2.07a2.91,2.91,0,0,0,2.19-1,3.09,3.09,0,0,0,.88-2.19l-.06-3.82.31-.37A5.23,5.23,0,0,0,57.26,86l-.19-7.34a5.06,5.06,0,0,0-.68-2.51L54.63,73l4.26-1.19a3.1,3.1,0,0,0,2.26-3v-.88A3.1,3.1,0,0,0,58,64.87h0l-5.38-.06a2.66,2.66,0,0,0-1.89.75l-.12.13-3.76-5.83a7.27,7.27,0,0,0-6.15-3.34l-19.3.06a7,7,0,0,0-6.33,4L12.21,66.3l-.81-.7A2.84,2.84,0,0,0,9.56,65l-5.14.19a3.12,3.12,0,0,0-3,3.14v.87a3.17,3.17,0,0,0,2.7,3.08L8.88,73,6.94,75.75a5.16,5.16,0,0,0-1,3.14l.26,7.52a5.19,5.19,0,0,0,1.38,3.36V93.4a3.5,3.5,0,0,0,1.07,2.51,3.22,3.22,0,0,0,2.57,1h1.88a3.66,3.66,0,0,0,2.57-1.06,3.5,3.5,0,0,0,1-2.57l-.06-3.2Z"/><path class="cls-7" d="M24.29,82.56a.89.89,0,0,0-.87-.88h0c-3.08.06-8,.13-8.65.06a.89.89,0,0,0-1.07.63.92.92,0,0,0,.61,1.07,15.29,15.29,0,0,0,3,.06c1.31,0,3.25,0,6.14-.06a.84.84,0,0,0,.83-.86Z"/><path class="cls-7" d="M50.13,83.38h0a.88.88,0,0,0,0-1.76h-9a.86.86,0,0,0-.88.84v0h0a.9.9,0,0,0,.88.88Z"/><path class="cls-8" d="M49,73a3.1,3.1,0,0,1-2.13.88l-26.71.26a3.09,3.09,0,0,1-1.81-.57l-2.95-2.07,3-6.08a5.27,5.27,0,0,1,4.78-2.94l19.31-.06a5.39,5.39,0,0,1,4.57,2.5L51,71Z"/><path id="Caminho_3675" data-name="Caminho 3675" class="cls-9" d="M14.84,43.61a4,4,0,0,1,.54-2.13,4,4,0,0,1,2-.62,4.11,4.11,0,0,1-2.09-.5,4,4,0,0,1-.61-2.08,3.8,3.8,0,0,1-.55,2.13,3.51,3.51,0,0,1-2,.57,4.19,4.19,0,0,1,2.08.48A4.07,4.07,0,0,1,14.84,43.61Z"/><path id="Caminho_3674-2" data-name="Caminho 3674-2" class="cls-9" d="M66.5,6.79a2.47,2.47,0,0,1,3-3.09,4.75,4.75,0,0,1-2.39-.58A4.33,4.33,0,0,1,66.34.73a4.47,4.47,0,0,1-.61,2.45,4.1,4.1,0,0,1-2.34.65,4.62,4.62,0,0,1,2.39.57A4.5,4.5,0,0,1,66.5,6.79Z"/><path id="Caminho_3675-2" data-name="Caminho 3675-2" class="cls-9" d="M8.27,26.92a6.45,6.45,0,0,1,.83-3.38,6.66,6.66,0,0,1,3.28-1,6.35,6.35,0,0,1-3.33-.84,6.58,6.58,0,0,1-1-3.29,6.2,6.2,0,0,1-.87,3.39,5.69,5.69,0,0,1-3.24.9,6.33,6.33,0,0,1,3.32.83A6.28,6.28,0,0,1,8.27,26.92Z"/><path id="Caminho_3675-2-2" data-name="Caminho 3675-2-2" class="cls-9" d="M122.6,51.13a4.62,4.62,0,0,1,.64-2.52,4.81,4.81,0,0,1,2.39-.72,4.89,4.89,0,0,1-2.46-.59,4.85,4.85,0,0,1-.72-2.43,4.62,4.62,0,0,1-.65,2.51,4.19,4.19,0,0,1-2.38.67,4.94,4.94,0,0,1,2.46.59A4.87,4.87,0,0,1,122.6,51.13Z"/><g id="Group_5032" data-name="Group 5032"><path id="Stroke_5020" data-name="Stroke 5020" class="cls-10" d="M111.89,86.74h0a2.13,2.13,0,0,1-2.13-2.13h0V68.85a5.32,5.32,0,0,1,5.32-5.3h5.59a5.32,5.32,0,0,1,5.33,5.3V84.61a2.13,2.13,0,0,1-2.13,2.13h0"/><path id="Fill_5024" data-name="Fill 5024" class="cls-5" d="M121.36,60.07a3.48,3.48,0,1,1-3.48-3.48h0a3.48,3.48,0,0,1,3.48,3.48"/><path class="cls-5" d="M117.88,64.17a4.1,4.1,0,1,1,4.1-4.1h0A4.12,4.12,0,0,1,117.88,64.17Zm0-7a2.87,2.87,0,1,0,2.86,2.86,2.83,2.83,0,0,0-2.8-2.86Z"/><path class="cls-11" d="M118.88,74.53h-2a3.1,3.1,0,0,0-3.1,3.1V91.21a3.1,3.1,0,0,0,3.1,3.1h2a3.1,3.1,0,0,0,3.1-3.1h0V77.63A3.11,3.11,0,0,0,118.88,74.53Z"/><path class="cls-12" d="M128.32,59.45h-7a.62.62,0,1,0-.11,1.23h7.07a.62.62,0,0,0,.56-.67.6.6,0,0,0-.56-.56Z"/><path class="cls-12" d="M115,60.07a.62.62,0,0,0-.62-.62h-7a.62.62,0,1,0-.11,1.23h7.07a.61.61,0,0,0,.62-.61Z"/><path class="cls-8" d="M117.88,56a4.1,4.1,0,1,0,4.1,4.09h0A4.1,4.1,0,0,0,117.88,56Z"/></g><path class="cls-3" d="M127.46,58.7h-6.39a4.09,4.09,0,0,0-8.09,0h-6.39a.62.62,0,0,0-.56.68.61.61,0,0,0,.56.56H113a4.14,4.14,0,0,0,1.91,2.87h-.64a5.32,5.32,0,0,0-5.32,5.32V83.89h0A2.13,2.13,0,0,0,111.06,86H113v4.47a3.1,3.1,0,0,0,3.1,3.1h2a3.1,3.1,0,0,0,3.1-3.1V86h1.91a2.14,2.14,0,0,0,2.13-2.13V68.13a5.32,5.32,0,0,0-5.33-5.32h-.64a4.13,4.13,0,0,0,1.92-2.87h6.39a.62.62,0,1,0,.1-1.24h-.18Z"/><path class="cls-3" d="M112.93,86V77.36A3.39,3.39,0,0,1,116.32,74h1.58a3.38,3.38,0,0,1,3.39,3.38v.1L121.13,86"/><path class="cls-13" d="M85.66,83.37a9,9,0,0,1-2.78,3.48,3.58,3.58,0,0,1-3.62.39l-8.75-4a3.58,3.58,0,0,1-2.09-3,9,9,0,1,1,17.24,3.13Z"/><path class="cls-14" d="M83.18,71.78a8.89,8.89,0,0,0,6.33-5.07,1.28,1.28,0,0,0-.36-1.56,6.1,6.1,0,0,0-4.53-1.52,5,5,0,0,1-4.25-1.82.67.67,0,0,0-1,0,.6.6,0,0,0-.16.22,9.42,9.42,0,0,0,.65,8.83Z"/><rect class="cls-5" x="80.97" y="68.87" width="0.96" height="4.77" rx="0.21" transform="translate(-17.11 115.93) rotate(-65.56)"/><circle class="cls-5" cx="79.42" cy="70.4" r="0.73"/><path class="cls-5" d="M70.67,69.35a.36.36,0,0,0,.35.12,3.77,3.77,0,0,1,3.28,1,5.12,5.12,0,0,0,1.55.9,4.52,4.52,0,0,0,3.47-.65.38.38,0,0,0,.16-.44.38.38,0,0,0-.39-.27,2.88,2.88,0,0,1-2.82-1.66A3.84,3.84,0,0,0,73.46,66a.41.41,0,0,0-.45.33.38.38,0,0,0,.29.44h0a3.05,3.05,0,0,1,2.22,1.8,3.28,3.28,0,0,0,2.17,2,2.76,2.76,0,0,1-1.61,0,4.91,4.91,0,0,1-1.33-.77,4.4,4.4,0,0,0-3.88-1.11.39.39,0,0,0-.31.47h0A.32.32,0,0,0,70.67,69.35Z"/><path class="cls-5" d="M83,86.39a3.66,3.66,0,0,1-1.53-.33l-8.75-4A3.7,3.7,0,0,1,70.61,79a9.14,9.14,0,1,1,14.62,6.68A3.54,3.54,0,0,1,83,86.39Zm-3.3-17a8.94,8.94,0,0,0-9,8.91c0,.21,0,.41,0,.62a3.46,3.46,0,0,0,2,2.94l8.75,4a3.45,3.45,0,0,0,3.51-.38,9,9,0,0,0,2.76-3.44l.09,0-.09,0a9,9,0,0,0-8.12-12.63Z"/><path class="cls-5" d="M85.22,71.24l0-.2a8.57,8.57,0,0,0,4.61-2.57A8.78,8.78,0,0,0,91.43,66a.81.81,0,0,0,.13-.48,1.59,1.59,0,0,0-.06-.43.94.94,0,0,0-.28-.48,6.42,6.42,0,0,0-2.8-1.5,4,4,0,0,0-1.64-.1,3.88,3.88,0,0,1-.48,0H86a5.35,5.35,0,0,1-3.78-2,.58.58,0,0,0-.79.08h0a.45.45,0,0,0-.11.19l0,.06a7.08,7.08,0,0,0-.39,1.09,8.46,8.46,0,0,0-.35,2.06A9.17,9.17,0,0,0,80.76,67c.08.4.19.73.29,1.07s.23.64.37,1l.24.48-.19.08-.23-.47c-.14-.32-.27-.65-.38-1a11.24,11.24,0,0,1-.3-1.09,9.49,9.49,0,0,1-.18-2.38,8.87,8.87,0,0,1,.35-2.11,6.44,6.44,0,0,1,.41-1.11v-.06a.61.61,0,0,1,.15-.26A.78.78,0,0,1,82.36,61h0A5.3,5.3,0,0,0,86,62.9h.26l.44,0a4,4,0,0,1,1.73.1,6.56,6.56,0,0,1,2.86,1.55,1.11,1.11,0,0,1,.35.55,1.32,1.32,0,0,1,.06.48,1,1,0,0,1-.14.55,9.24,9.24,0,0,1-1.67,2.48A8.76,8.76,0,0,1,85.22,71.24Z"/><path class="cls-5" d="M79,76.77a.9.9,0,0,0,.16.36c.09.11.21.25.37.42a6.44,6.44,0,0,1,.48.56,1.26,1.26,0,0,1,.2.56,1.35,1.35,0,0,1-.16.73,1.28,1.28,0,0,1-.7.69,1.41,1.41,0,0,1-1,0l-.41.83-.38-.18.41-.83a1.82,1.82,0,0,1-.59-.55,2.24,2.24,0,0,1-.35-.75l.48-.41a2,2,0,0,0,.35.75,1.48,1.48,0,0,0,.54.48,1,1,0,0,0,.66.1.63.63,0,0,0,.44-.37.67.67,0,0,0,.07-.44.78.78,0,0,0-.17-.37,3.62,3.62,0,0,0-.36-.42,5,5,0,0,1-.48-.55,1.22,1.22,0,0,1-.2-.56,1.29,1.29,0,0,1,.16-.72,1.22,1.22,0,0,1,.67-.65,1.33,1.33,0,0,1,1,0l.35-.76.38.18-.35.75A2.31,2.31,0,0,1,81,76a2.39,2.39,0,0,1,.34.51l-.48.44a2,2,0,0,0-.38-.54A1.34,1.34,0,0,0,80,76.1a.77.77,0,0,0-.57-.11.54.54,0,0,0-.39.31A.69.69,0,0,0,79,76.77Z"/><path class="cls-15" d="M63.56,9.59c4.88-2.45,10-4.54,15.47-5,4.34-.39,8.94.33,12.42,2.9S97,14.68,95.61,18.74c-1.16,3.45-4.39,5.8-7.59,7.64-2.9,1.66-6.24,3.15-9.51,2.42-1.36-.31-2.78-1.2-2.92-2.56s1-2.39,2-3.19c6.18-4.43,15.13-4.22,21.66-.29s10.67,11.06,11.84,18.49-.4,15.07-3.38,22c-1.23,2.87-2.83,5.77-5.5,7.47s-5.83,1.91-8.9,1.83c-1.3,0-3-.56-2.91-1.83a2.11,2.11,0,0,1,1.12-1.46c3.48-2.18,8.6-.52,10.7,3,1.91,3.13,1.6,7.16-.12,10.43"/></svg>