<svg id="Grupo_79811" data-name="Grupo 79811" xmlns="http://www.w3.org/2000/svg" xmlns:xlink="http://www.w3.org/1999/xlink" width="40" height="40" viewBox="0 0 40 40">
  <defs>
    <clipPath id="clip-path">
      <rect id="Retângulo_14817" data-name="Retângulo 14817" width="40" height="40" fill="none"/>
    </clipPath>
  </defs>
  <g id="Grupo_79810" data-name="Grupo 79810" clip-path="url(#clip-path)">
    <path id="Caminho_67529" data-name="Caminho 67529" d="M28.572,28.5a4.673,4.673,0,0,1-3.325-1.375l-4.818-4.818a.913.913,0,0,0-1.261,0l-4.8,4.8a4.677,4.677,0,0,1-3.325,1.377h-.577l6.1,6.1a4.86,4.86,0,0,0,6.874,0h0L29.519,28.5Z" fill="#ff003e"/>
    <path id="Caminho_67530" data-name="Caminho 67530" d="M23.438,5.424a4.861,4.861,0,0,0-6.873,0l0,0h0l-6.1,6.1h.578A4.681,4.681,0,0,1,14.368,12.9l4.8,4.8a.891.891,0,0,0,1.26,0v0l4.818-4.819A4.678,4.678,0,0,1,28.572,11.5h.948Z" fill="#ff003e"/>
    <path id="Caminho_67531" data-name="Caminho 67531" d="M34.578,16.564l-3.652-3.652H28.57a3.317,3.317,0,0,0-2.325.964l-4.817,4.819a2.307,2.307,0,0,1-3.258,0l-4.8-4.8a3.311,3.311,0,0,0-2.325-.964H9.056L5.424,16.564a4.861,4.861,0,0,0,0,6.875L9.055,27.07h1.989a3.306,3.306,0,0,0,2.325-.963l4.8-4.8a2.361,2.361,0,0,1,3.259,0l4.818,4.819a3.311,3.311,0,0,0,2.325.964h2.356l3.648-3.652a4.861,4.861,0,0,0,0-6.874" fill="#ff003e"/>
  </g>
</svg>
