<svg xmlns="http://www.w3.org/2000/svg" width="102.083" height="99.153" viewBox="0 0 102.083 99.153">
  <g id="ilustra_bitz" data-name="ilustra bitz" transform="translate(-14.41 -0.497)">
    <path id="Caminho_3675-2" data-name="Caminho 3675-2" d="M17.69,24a4.78,4.78,0,0,1,.62-2.53,5,5,0,0,1,2.44-.76,4.54,4.54,0,0,1-2.49-.61,5.1,5.1,0,0,1-.75-2.44,4.46,4.46,0,0,1-.66,2.54,4.13,4.13,0,0,1-2.44.67,4.72,4.72,0,0,1,2.49.61A4.15,4.15,0,0,1,17.69,24Z" fill="#dea100"/>
    <path id="Caminho_3675-2-2" data-name="Caminho 3675-2-2" d="M33.27,15.88a3,3,0,0,1,.38-1.55,2.94,2.94,0,0,1,1.5-.43,2.79,2.79,0,0,1-1.5-.37A2.85,2.85,0,0,1,33.22,12a3,3,0,0,1-.37,1.55,2.62,2.62,0,0,1-1.46.43,2.79,2.79,0,0,1,1.5.37A3.44,3.44,0,0,1,33.27,15.88Z" fill="#dea100"/>
    <path id="Caminho_12791" data-name="Caminho 12791" d="M30.84,84.81,69.2,96.21a4.23,4.23,0,0,0,5.24-2.82L97,17.31a4.21,4.21,0,0,0-2.82-5.23L55.83.67a4.23,4.23,0,0,0-5.24,2.82L28,79.56a4.24,4.24,0,0,0,2.82,5.24Z" fill="#dcdcda"/>
    <path id="Caminho_12792" data-name="Caminho 12792" d="M58.18,19.39,73.73,24a.78.78,0,0,0,.94-.47l.22-.81a.79.79,0,0,0-.49-.94L58.84,17.16a.8.8,0,0,0-.93.44l-.22.82A.87.87,0,0,0,58.18,19.39Z" fill="#202447"/>
    <path id="Caminho_12793" data-name="Caminho 12793" d="M73.94,24a.83.83,0,0,1-.22,0L58.16,19.41a.9.9,0,0,1-.5-1l.22-.82a.84.84,0,0,1,1-.46l15.56,4.59a.82.82,0,0,1,.51,1l-.22.82a.82.82,0,0,1-.79.46ZM58.19,19.36l15.55,4.58a.75.75,0,0,0,.9-.45l.22-.81a.77.77,0,0,0-.47-.91L58.84,17.19a.79.79,0,0,0-.91.42l-.21.82A.85.85,0,0,0,58.19,19.36Z" fill="#202447"/>
    <circle id="Elipse_1757" data-name="Elipse 1757" cx="2.51" cy="2.51" r="2.51" transform="translate(47.86 81.32)" fill="#202447"/>
    <path id="Caminho_12794" data-name="Caminho 12794" d="M50.37,86.52a2.69,2.69,0,1,1,2.69-2.69,2.69,2.69,0,0,1-2.69,2.69Zm0-5a.967.967,0,1,0,0-.02Z" fill="#202447"/>
    <path id="Caminho_12795" data-name="Caminho 12795" d="M63.78,80.73a1.93,1.93,0,0,1-.52-.08l-26.93-8h-.14a1.77,1.77,0,0,1-1-2.27L49.51,21.69a1.89,1.89,0,0,1,2.33-1.31l26.91,8a1.85,1.85,0,0,1,1.3,2.32L65.59,79.4a1.91,1.91,0,0,1-1.81,1.33ZM36.35,72.32h0l27,8a1.58,1.58,0,0,0,1.94-1L79.75,30.65a1.55,1.55,0,0,0-1.06-1.92l-26.94-8a1.57,1.57,0,0,0-1.93,1.07L35.42,70.5a1.46,1.46,0,0,0,.78,1.86.24.24,0,0,1,.15-.04Z" fill="#202447"/>
    <path id="Caminho_12796" data-name="Caminho 12796" d="M61.71,99.65a4.36,4.36,0,0,1-1.23-.18L22.08,88.06h0a4.31,4.31,0,0,1-2.81-5.41L41.77,6.56A4.39,4.39,0,0,1,47.2,3.64L85.59,15a4.4,4.4,0,0,1,2.92,5.43L65.91,96.55A4.4,4.4,0,0,1,61.71,99.65ZM22.24,87.79,60.57,99.18a4.09,4.09,0,0,0,5.05-2.72l22.6-76.08a4.11,4.11,0,0,0-2.72-5L47.11,3.93a4.09,4.09,0,0,0-5,2.72L19.51,82.71a4,4,0,0,0,2.61,5Z" fill="#202447"/>
    <g id="SCREENS-_-FASE-1" data-name="SCREENS- -FASE-1">
      <g id="red_desktop_home_fase_1" data-name="red desktop home fase 1">
        <g id="hero">
          <g id="menu">
            <g id="logo">
              <path id="Fill-1" d="M43.28,53.05l4.53,1.26,1.31-4.53-4.58-1.26Z" fill="#ff3c65"/>
              <g id="Group-10">
                <path id="Fill-2" d="M47.15,51.63a1.157,1.157,0,1,1-.65-1.2h0a1,1,0,0,1,.65,1.19" fill="#fdd303"/>
                <path id="Fill-4" d="M53.87,51.96l.87.22.22-.82-.87-.27Z" fill="#ff3c65"/>
                <path id="Fill-6" d="M51.52,54.36a.92.92,0,0,1-.65.06l-.94-.27.32-1.26.94.27a.7.7,0,0,1,.61.78.28.28,0,0,1,0,.09,1.26,1.26,0,0,1-.27.33Zm-.71-3.29.71.22h0a.53.53,0,0,1-.16,1,.18.18,0,0,1-.16,0h0l-.71-.22Zm1.53,1.7a1.25,1.25,0,0,0,.55-.71,1.17,1.17,0,0,0-.17-1,1.44,1.44,0,0,0-1-.6L50.16,50l-1.31,4.59L50.7,55a1.65,1.65,0,0,0,1.36,0,1.4,1.4,0,0,0,.71-.87,1.46,1.46,0,0,0-.43-1.37Z" fill="#fff"/>
                <path id="Fill-7" d="M56.71,54.09l.16-.71-.93-.27.22-.66-.87-.27-1.1,3.93.88.22.65.21.22-.7-.71-.17.55-1.85Z" fill="#fff"/>
                <path id="Fill-8" d="M59.98,54.26l-2.62-.77-.22.71,1.48.44L56.54,56l-.16.71,2.67.76.22-.71-1.69-.43,2.24-1.53Z" fill="#fff"/>
                <path id="Fill-9" d="M53.48,53.44l-.65,2.29.82.22.65-2.3.28-.81-.88-.28Z" fill="#fff"/>
              </g>
            </g>
          </g>
        </g>
      </g>
    </g>
    <path id="Caminho_12797" data-name="Caminho 12797" d="M40.55,55.24l14.57,4.47h0l-4.91,16a.48.48,0,0,1-.57.34h0L37.17,72.26a2.19,2.19,0,0,1-1.5-2.72s0,0,0-.06L40,55.6a.5.5,0,0,1,.6-.38h0Z" fill="#e51a57"/>
    <path id="Caminho_12798" data-name="Caminho 12798" d="M69.2,63.31a6.86,6.86,0,0,1-13.26-3.38" fill="#fdd303"/>
    <path id="Caminho_12799" data-name="Caminho 12799" d="M65.55,25.06a6.87,6.87,0,0,1-13.11-4" fill="#1b68e2"/>
    <path id="Caminho_12800" data-name="Caminho 12800" d="M70.89,58.94c-4.91-1.52-7.31-8-5.34-14.45S73.13,34,78,35.48" fill="#8b1be2"/>
    <path id="Caminho_12801" data-name="Caminho 12801" d="M90.37,49c1.2,2.51.55,5.35-1.36,6.55l-.22.11c-.06,0-.11,0-.17.11-2.23,1-5.07-.28-6.32-2.95-1.15-2.46-.61-5.24,1.25-6.49h0a1.08,1.08,0,0,1,.44-.22h0l.11-.06C86.28,45,89.12,46.34,90.37,49Z" fill="#f8d760"/>
    <path id="Caminho_12802" data-name="Caminho 12802" d="M91.08,48.64c1.2,2.5.55,5.34-1.37,6.54h0l-.16.11-.7.44c1.9-1.2,2.56-4,1.36-6.55-1.26-2.67-4.09-4-6.33-3l-.11.06.65-.38h0l.28-.17C87,44.65,89.77,46,91.08,48.64Z" fill="#f8b70d"/>
    <path id="Caminho_12803" data-name="Caminho 12803" d="M86.18,54.15a3.09,3.09,0,0,1-2.65-1.89A2.54,2.54,0,1,1,88,50.13a3.35,3.35,0,0,1,.26,2.25A2.27,2.27,0,0,1,87.08,54a2.15,2.15,0,0,1-.9.15Zm-.79-5.83a2,2,0,0,0-.87.2,3,3,0,0,0,2.53,5.35,2.18,2.18,0,0,0,1.17-1.51,3.27,3.27,0,0,0-.25-2.2,3,3,0,0,0-2.58-1.84Z" fill="#202546"/>
    <path id="Caminho_12804" data-name="Caminho 12804" d="M85,50.76a.51.51,0,0,0,.27.06l.33-.06a1.3,1.3,0,0,1,.44,0,1,1,0,0,1,.38,0,.72.72,0,0,1,.38.33,1.06,1.06,0,0,1,.16.6,1,1,0,0,1-.33.54l.33.47-.21.11-.33-.49a1.63,1.63,0,0,1-.47.16,2,2,0,0,1-.55,0l-.05-.38a1.94,1.94,0,0,0,.54.05.6.6,0,0,0,.44-.16.79.79,0,0,0,.27-.33.43.43,0,0,0-.06-.38c-.05-.11-.1-.17-.21-.17A.52.52,0,0,0,86,51c-.11,0-.22.05-.33.05a1.09,1.09,0,0,1-.44.06.82.82,0,0,1-.38-.06.46.46,0,0,1-.33-.32.8.8,0,0,1,.13-1.12h0l-.33-.43L84.6,49l.33.44c.11-.06.27-.11.38-.17h.38l.11.38a1.09,1.09,0,0,0-.44.06.76.76,0,0,0-.32.11.35.35,0,0,0-.22.27.33.33,0,0,0,.06.33C84.8,50.65,84.86,50.71,85,50.76Z" fill="#202546"/>
    <path id="Caminho_12805" data-name="Caminho 12805" d="M85.94,57.5a6,6,0,0,1-5.14-3.56,5.64,5.64,0,0,1,1.36-7.07l.22-.13.22-.14.14-.07c2.45-1.09,5.52.37,6.84,3.24,1.26,2.69.62,5.82-1.47,7.12a.43.43,0,0,1-.24.13l-.13.09a4.36,4.36,0,0,1-1.8.39Zm-1.48-11a3.9,3.9,0,0,0-1.6.34h-.11l-.22.14-.2.12c-1.89,1.36-2.43,4.23-1.25,6.68,1.31,2.74,4.23,4.1,6.51,3l.21-.12a.27.27,0,0,0,.12-.06c2-1.25,2.58-4.21,1.38-6.76h0a5.57,5.57,0,0,0-4.84-3.37Z" fill="#202447"/>
    <path id="Caminho_12806" data-name="Caminho 12806" d="M112.48,82.3c-3.6,7.42-11.24,11.27-17.62,9.06-.22-.11-.44-.17-.66-.28a4,4,0,0,0-.47-.22c-6.58-3.16-8.84-12.17-5-20.08,3.49-7.31,10.91-11.07,17.19-9.16h0l1.31.47h0l.27.11C114.07,65.38,116.3,74.39,112.48,82.3Z" fill="#f8d760"/>
    <path id="Caminho_12807" data-name="Caminho 12807" d="M114.67,83.17c-3.6,7.48-11.27,11.28-17.67,9h0L96.45,92l-2.24-.82c6.39,2.19,14-1.63,17.63-9,3.82-7.91,1.58-16.91-5-20.08l-.28-.11,2.19.82h0a6.15,6.15,0,0,1,.88.38C116.19,66.26,118.43,75.26,114.67,83.17Z" fill="#f8b70d"/>
    <path id="Caminho_12808" data-name="Caminho 12808" d="M97.71,84.52A6.27,6.27,0,0,1,95,83.9c-3.72-1.78-5-6.9-2.8-11.34h0c2.16-4.48,6.92-6.67,10.61-4.89s4.93,6.87,2.77,11.34C103.93,82.43,100.76,84.52,97.71,84.52Zm-5.3-11.86c-2.1,4.36-.9,9.31,2.67,11s8.19-.42,10.29-4.78.9-9.31-2.67-11S94.52,68.3,92.41,72.66Z" fill="#202546"/>
    <path id="Caminho_12809" data-name="Caminho 12809" d="M98.46,73a2.2,2.2,0,0,0,.44.65c.22.17.43.38.81.66a8.409,8.409,0,0,1,1,.94,2.17,2.17,0,0,1,.55,1,2.6,2.6,0,0,1-.06,1.41,2.48,2.48,0,0,1-2.97,1.85l-.47,1.7L97,81l.49-1.7a3.44,3.44,0,0,1-1.26-.87,4.28,4.28,0,0,1-.87-1.31l.76-.94a4,4,0,0,0,.88,1.3,3,3,0,0,0,1.14.71,1.75,1.75,0,0,0,1.31,0,1.3,1.3,0,0,0,.71-.81,1.21,1.21,0,0,0,0-.88,1.38,1.38,0,0,0-.44-.65,7.291,7.291,0,0,0-.81-.66,7.859,7.859,0,0,1-1-.87,2.23,2.23,0,0,1-.55-1,3.06,3.06,0,0,1,.06-1.41,2.34,2.34,0,0,1,1.09-1.41,2.89,2.89,0,0,1,1.8-.28l.44-1.53.76.22-.43,1.53a3.71,3.71,0,0,1,1.8,1.47l-.77,1a3.92,3.92,0,0,0-.87-1,3.19,3.19,0,0,0-.94-.47,1.75,1.75,0,0,0-1.15-.06.89.89,0,0,0-.6.71,1.12,1.12,0,0,0-.09.91Z" fill="#202546"/>
    <path id="Caminho_12810" data-name="Caminho 12810" d="M94.24,92.18a12.42,12.42,0,0,1-4.07-.68,1.66,1.66,0,0,0-.35-.13c-.12-.05-.26-.09-.38-.15a4.752,4.752,0,0,1-.55-.28c-7-3.39-9.42-13-5.36-21.42,3.7-7.66,11.62-11.87,18.41-9.8a12.143,12.143,0,0,1,1.43.56l.31.1a12.88,12.88,0,0,1,6.84,8.82A18.84,18.84,0,0,1,109,81.82C106,88.23,100.06,92.18,94.24,92.18ZM98.36,59.5c-5.7,0-11.54,3.91-14.55,10.15-4,8.26-1.65,17.69,5.22,21a4.531,4.531,0,0,0,.54.27,3.651,3.651,0,0,0,.35.14,2.791,2.791,0,0,1,.37.14c6.67,2.31,14.79-1.87,18.45-9.53h0a18.57,18.57,0,0,0,1.49-12.42,12.6,12.6,0,0,0-6.66-8.61l-.31-.1c-.48-.22-1-.38-1.4-.54a11.92,11.92,0,0,0-3.5-.5Z" fill="#202447"/>
    <path id="Caminho_12811" data-name="Caminho 12811" d="M63,33.71a.41.41,0,0,1-.56-.08.42.42,0,0,1,0-.43l.44-.86a.4.4,0,1,1,.72.37l-.44.85a.37.37,0,0,1-.16.15Z" fill="#81cff4"/>
    <path id="Caminho_12812" data-name="Caminho 12812" d="M110.69,55.39h-.08a.39.39,0,0,1-.52-.21,6.89,6.89,0,0,0-.77-1.41l-.13-.18a.42.42,0,0,1,.19-.54.41.41,0,0,1,.46.07l.14.2a8.421,8.421,0,0,1,.85,1.56.39.39,0,0,1-.14.51Zm-2.3-3a.41.41,0,0,1-.47,0,4.87,4.87,0,0,0-.94-.54,2.87,2.87,0,0,0-.64-.23.4.4,0,0,1-.27-.5h0a.38.38,0,0,1,.48-.28h0a4.78,4.78,0,0,1,.75.27,5.62,5.62,0,0,1,1.09.63.41.41,0,0,1,.09.57.39.39,0,0,1-.09.07Zm-5,2.52-.52.35a3.46,3.46,0,0,1-1.3.54.41.41,0,0,1-.47-.33.4.4,0,0,1,.33-.46,2.85,2.85,0,0,0,1-.42l.51-.34h0a.41.41,0,0,1,.57.1.4.4,0,0,1-.1.56Zm1.55-1.24a.41.41,0,0,1-.51-.63,8.24,8.24,0,0,0,1.2-1.37.39.39,0,0,1,.55-.11h0a.4.4,0,0,1,.1.56,9,9,0,0,1-1.31,1.51ZM107,50.5a.41.41,0,0,1-.62-.44h0a7.2,7.2,0,0,0,.29-1.79.4.4,0,0,1,.42-.38.38.38,0,0,1,.38.4h0a7.81,7.81,0,0,1-.32,2,.48.48,0,0,1-.15.22Zm-6.47,4.16a.4.4,0,0,1-.63-.39h0a3.279,3.279,0,0,1,.18-.61,4.38,4.38,0,0,1,.8-1.28.4.4,0,0,1,.6.54,3.67,3.67,0,0,0-.66,1,1.66,1.66,0,0,0-.12.42.39.39,0,0,1-.19.32Zm4.27-3.29a.37.37,0,0,1-.2.07,5.37,5.37,0,0,0-1.71.47.4.4,0,1,1-.37-.72h0a5.75,5.75,0,0,1,2-.52A.4.4,0,0,1,105,51a.43.43,0,0,1-.22.37Zm2.4-4.7a.36.36,0,0,1-.18.07.39.39,0,0,1-.46-.32h0c-.06-.5-.16-1-.3-1.68v-.17a.41.41,0,0,1,.26-.51.4.4,0,0,1,.51.26s0,.05,0,.08v.17a15.521,15.521,0,0,1,.31,1.75.37.37,0,0,1-.14.4Zm-.81-3.76a.27.27,0,0,1-.12.06.39.39,0,0,1-.47-.27c-.17-.62-.37-1.23-.57-1.81a.41.41,0,0,1,.24-.51h0a.39.39,0,0,1,.51.24c.21.61.41,1.23.58,1.86a.4.4,0,0,1-.18.47Zm-1.26-3.62-.07.05a.41.41,0,0,1-.53-.22c-.25-.59-.52-1.16-.8-1.71a.41.41,0,0,1,.72-.37c.29.57.56,1.16.82,1.77a.41.41,0,0,1-.14.52Zm-1.71-3.38h0a.41.41,0,0,1-.55-.13c-.28-.47-.58-.91-.88-1.34l-.17-.24a.4.4,0,0,1,.09-.56h0a.41.41,0,0,1,.57.09l.17.25c.31.44.62.9.9,1.38a.39.39,0,0,1-.15.55Zm-2.25-3.1a.4.4,0,0,1-.54-.07c-.23-.27-.47-.54-.73-.8s-.37-.38-.56-.56a.4.4,0,0,1,0-.57.41.41,0,0,1,.51,0c.2.19.4.38.59.58s.51.55.76.83a.4.4,0,0,1,0,.57h-.06Zm-2.78-2.64a.41.41,0,0,1-.47,0,15.388,15.388,0,0,0-1.55-1.09.4.4,0,1,1,.36-.72h.07a17.648,17.648,0,0,1,1.6,1.12.4.4,0,0,1,.07.57.27.27,0,0,1-.1.08Zm-3.24-2a.43.43,0,0,1-.41,0A17.57,17.57,0,0,0,93,27.44a.4.4,0,0,1-.19-.54.42.42,0,0,1,.46-.22,19.2,19.2,0,0,1,1.81.76.41.41,0,0,1,.18.55.36.36,0,0,1-.15.15ZM79.32,37h0a4.3,4.3,0,0,1-.71.36,3.59,3.59,0,0,1-1.29.27.42.42,0,0,1-.45-.36.4.4,0,0,1,.36-.44h.09a2.59,2.59,0,0,0,1-.22,3.45,3.45,0,0,0,.61-.3.4.4,0,0,1,.55.14h0a.4.4,0,0,1-.14.55Zm1.45-1.24a.4.4,0,0,1-.53-.59,10,10,0,0,0,1.06-1.51A.4.4,0,1,1,82,34a.25.25,0,0,1,0,.07,9.7,9.7,0,0,1-1.15,1.62.16.16,0,0,1-.09.07Zm10.75-8.93a.42.42,0,0,1-.34.08,14.419,14.419,0,0,0-1.84-.31.41.41,0,0,1-.36-.44.39.39,0,0,1,.43-.36h0a16,16,0,0,1,1.94.32.4.4,0,0,1,.3.47.35.35,0,0,1-.16.23Zm-8.8,5.65a.39.39,0,0,1-.56-.1.41.41,0,0,1,0-.39c.29-.64.52-1.21.71-1.74a.4.4,0,0,1,.76.26,17.371,17.371,0,0,1-.74,1.81.29.29,0,0,1-.17.19Zm-6.81,4.21h-.06a.42.42,0,0,1-.54-.2,3.2,3.2,0,0,1,0-2.16.4.4,0,0,1,.53-.22.39.39,0,0,1,.24.45,2.44,2.44,0,0,0,0,1.6.41.41,0,0,1-.12.5ZM87.66,26.46a.34.34,0,0,1-.21.08H87a12.93,12.93,0,0,0-1.41.17.4.4,0,0,1-.47-.32.39.39,0,0,1,.31-.47h0a14.8,14.8,0,0,1,1.49-.19h.47a.42.42,0,0,1,.42.39h0a.41.41,0,0,1-.11.35ZM83.9,28.89a.41.41,0,0,1-.63-.4h0a9,9,0,0,0,.13-1.16,11.57,11.57,0,0,0-1.3.56.4.4,0,0,1-.35-.72,12.731,12.731,0,0,1,1.71-.69.39.39,0,0,1,.33-.22.41.41,0,0,1,.43.37,8.46,8.46,0,0,1-.12,2,.37.37,0,0,1-.16.26Zm-7.22,4.16a.386.386,0,0,1-.56-.52,10.74,10.74,0,0,1,1.08-1.66.4.4,0,0,1,.53-.21.41.41,0,0,1,.21.54.49.49,0,0,1-.11.14,10,10,0,0,0-1,1.55.45.45,0,0,1-.15.16ZM79,30a.4.4,0,0,1-.57,0,.41.41,0,0,1,0-.57,16,16,0,0,1,1.44-1.17l.11-.07a.39.39,0,0,1,.56.1.4.4,0,0,1-.09.56l-.1.07A11,11,0,0,0,79.06,30Zm4.59-4.92h-.07a.41.41,0,0,1-.53-.21A5.749,5.749,0,0,0,82.5,24c-.15-.19-.3-.38-.47-.56a.4.4,0,1,1,.59-.54,5.38,5.38,0,0,1,.52.64,6.55,6.55,0,0,1,.6,1.07.41.41,0,0,1-.14.52Zm-2.49-2.8a.39.39,0,0,1-.44,0A7.19,7.19,0,0,0,79,21.54a.4.4,0,0,1,.17-.79h.06a7.43,7.43,0,0,1,1.84.83.38.38,0,0,1,.13.54h0a.37.37,0,0,1-.13.17ZM64.4,31.17a.39.39,0,0,1-.43,0,.41.41,0,0,1-.15-.55c.33-.6.66-1.14,1-1.66a.4.4,0,1,1,.72.36v.06c-.33.52-.64,1.05-1,1.63a.41.41,0,0,1-.14.16Zm13.07-10a.59.59,0,0,1-.25.07h-.06a8,8,0,0,0-1.77.13.39.39,0,0,1-.44-.35.4.4,0,0,1,.3-.44,8.93,8.93,0,0,1,1.93-.15h.07a.41.41,0,0,1,.22.74Zm-11,6.71a.38.38,0,0,1-.47,0,.4.4,0,0,1-.1-.55h0c.39-.54.79-1.06,1.2-1.54a.41.41,0,0,1,.57,0,.42.42,0,0,1,0,.51c-.4.47-.79,1-1.17,1.48a.24.24,0,0,1-.06.14Zm7.26-6.06-.09.05a11.14,11.14,0,0,0-1.67.8.41.41,0,0,1-.41-.7h0a13.25,13.25,0,0,1,1.78-.86.407.407,0,0,1,.38.71ZM68.93,25a.41.41,0,0,1-.56-.11.39.39,0,0,1,0-.51c.29-.28.58-.55.88-.8a6.15,6.15,0,0,1,.6-.47.4.4,0,1,1,.6.54l-.13.1c-.19.14-.38.3-.57.47s-.57.5-.84.76Z" fill="#81cff4"/>
    <path id="Caminho_12813" data-name="Caminho 12813" d="M111.3,58.22a.42.42,0,0,1-.22.08.4.4,0,0,1-.41-.39,7.158,7.158,0,0,0-.09-.92.39.39,0,0,1,.33-.46h0a.41.41,0,0,1,.47.32h0a8.611,8.611,0,0,1,.09,1A.38.38,0,0,1,111.3,58.22Z" fill="#81cff4"/>
    <path id="Caminho_3675-2-3" data-name="Caminho 3675-2-3" d="M114.34,47.28a3.12,3.12,0,0,1,.38-1.55,2.93,2.93,0,0,1,1.5-.42,2.94,2.94,0,0,1-1.5-.38,2.74,2.74,0,0,1-.42-1.5,3.1,3.1,0,0,1-.38,1.55,2.58,2.58,0,0,1-1.45.42,2.94,2.94,0,0,1,1.5.38A3,3,0,0,1,114.34,47.28Z" fill="#dea100"/>
  </g>
</svg>
